<?xml version="1.0" encoding="UTF-8"?>
<svg id="Layer_2" data-name="Layer 2" xmlns="http://www.w3.org/2000/svg" viewBox="0 0 310.99 771.36">
  <defs>
    <style>
      .cls-1 {
        stroke-width: 0px;
      }
    </style>
  </defs>
  <g id="Layer_1-2" data-name="Layer 1">
    <g>
      <path class="cls-1" d="m92.03,308.57c-9.81,4.67-20.48,5.45-31.03,6.5-6.56.65-10.99,2.06-11.14,10.25-.19,10.58-8.48,16.94-14.95,24.01-9.39,10.24-18.92,20.29-24.07,33.61-7.03,18.18-3.55,33.86,10.78,47.3,16.67,15.64,37.01,24.82,58.19,32.03,25.56,8.71,51.5,16.3,77.17,24.69,7.99,2.61,15.68,6.14,23.44,9.42,16.13,6.83,25.3,19.91,32.22,35.32,8.89,19.79,14.43,40.56,19.63,61.52,13.17,53.09,35.04,102.62,62.25,149.9,5.29,9.2,10.69,18.33,16.47,28.23-3.43.09-4-2-4.91-3.43-31.41-49.67-57.14-102.06-74.56-158.28-6.89-22.23-11.62-45.06-20.48-66.75-8.47-20.72-20.26-37.44-42.91-44-9.52-2.76-18.99-5.69-28.5-8.49-32.32-9.51-65.13-17.62-95.01-33.94-9.59-5.24-18.78-10.99-26.77-18.59-20.93-19.92-23.59-44.46-7.17-68.34,7.2-10.47,15.61-19.86,24.97-28.44,3.48-3.19,6.68-6.66,8.69-11.01,4.04-8.7,3.51-10.63-4.29-16.32-5.94-4.33-6.91-12.43-1.74-19.15,5.8-7.55,13.24-12.9,23.19-12.92,5.57,0,6.34-2.14,4.7-6.78-2.63-7.48-5.15-14.99-6.58-22.84-1.26-6.89,0-13.35,3-19.5,2.32-4.76,6.2-7.15,11.56-5.85,9.38,2.27,13.2-5.31,17.97-10.45,4.49-4.85,4.19-11.02.83-16.63-3.18-5.31-6.83-10.34-10.22-15.53-2.98-4.56-6.21-9-8.74-13.81-9.36-17.79-5.4-30.11,12.49-39.12,18.2-9.17,37.95-14.53,56.56-22.68,17.93-7.86,35.85-15.74,53.78-23.62,10.13-4.45,17.8-11.48,22.95-21.33,5.85-11.2,12.08-22.21,17.8-33.47,5.98-11.76,15.2-20.52,25.82-30.08,0,3.92-1.82,5.38-3.25,6.69-12.13,11.15-20.63,24.81-26.38,39.99-10,26.39-28.98,42.2-54.83,52.66-28.24,11.43-56.55,22.75-84.53,34.84-22.07,9.53-24.52,18.16-12.07,38.49,4,6.54,8.71,12.66,12.89,19.09,9.38,14.43,7.47,25.05-7.23,33.65-6.8,3.98-7.42,7.46-5.13,14.68,6.06,19.16,13.49,37.8,20.15,56.73,3.58,10.19,2.8,11.23-8.06,11.89-.98.06-1.98-.08-2.97-.12,1.33-.92,2.66-1.85,4.87-3.38-5.13-1.43-8.71-3.98-12.22-6.68-3.53-2.71-7.19-5.29-10.95-7.69-9.52-6.08-17.3-5.58-25.78,1.75-4.29,3.71-9.59,7.48-7.15,14.18,2.35,6.45,8.62,4.56,13.58,4.71,4.69.15,9.41-.19,14.11-.53,7.88-.56,15.56-3.15,23.58-2.39Zm6.92-7.86c1.51-2.79.57-4.17,0-5.42-8.52-18.45-15.22-37.59-21.73-56.81-.97-2.86-1.69-6.98-5.96-6.39-3.74.52-4.75,4.29-5.24,7.38-2.06,12.92.12,25.37,4.5,38.33,3.17-6.1,5.32-3.93,7.54-.4,5.54,8.82,12.39,16.44,20.9,23.31Z"/>
      <path class="cls-1" d="m114.79,198.23c-9.38-5.66-16.22-12.83-23.07-19.98-1.39-1.46-2.78-3.12-1.59-5.25,1.21-2.16,3.3-1.78,5.27-1.23,7.19,1.99,19.21,18.07,19.39,26.46Z"/>
      <path class="cls-1" d="m122.48,206.9c24.02,2.84,28.36-15.07,33.6-33.05,3.62,11.48-1.09,25.65-9.72,32.37-7.03,5.48-15.93,5.94-23.88.68Z"/>
    </g>
  </g>
</svg>