<?xml version="1.0" encoding="UTF-8"?>
<svg id="Layer_2" data-name="Layer 2" xmlns="http://www.w3.org/2000/svg" viewBox="0 0 565.07 616.81">
  <defs>
    <style>
      .cls-1 {
        stroke-width: 0px;
      }
    </style>
  </defs>
  <g id="Layer_1-2" data-name="Layer 1">
    <path class="cls-1" d="m336.32,616.81c-3.07-32.67-13.9-63.85-18.46-96.26-1.99-14.1-12.91-22.45-24.83-27.68-28.54-12.52-48.02-32.6-60.05-61.56-5.87-14.14-15.89-26.68-24.79-39.41-16.94-24.22-27.05-51.03-32.23-79.92-1.38-7.7-2.55-16.1,6.36-19.32,8.78-3.17,14.13,4.11,17.66,10.57,4.58,8.38,7.57,17.64,13.29,26-2.85-9.03-5.68-18.07-8.57-27.1-2.45-7.65-5.57-15.18-4.89-23.46,1.05-12.88,9.44-16.96,19.72-9.03,5.09,3.92,8.58,6.99,16.46,5.74,13.02-2.07,16.47,9.78,19.45,19.48,1.87,6.06,2,10.87,11.03,8.57,8.67-2.21,13.45,5.45,17.35,11.81,5.89,9.59,10.98,19.67,16.52,29.47,12.5,22.12,42.91,29.98,65.09,16.96,5.34-3.13,9.42-7.48,11.04-13.32,8.27-29.96,20.22-58.79,26.91-89.23,5.18-23.6-1.16-44.64-13.8-64.16-5.1-7.87-8.81-15.64-8.88-25.27-.32-41.57-20.26-76.69-49.92-100.64-33.35-26.93-67.08-30.58-92.49,11.26-13.08,21.53-25.31,43.52-40.09,64.06-11.3,15.72-13.37,34.71-13.52,53.81-.17,22.15-2.66,43.93-12.87,64.08-1.85,3.65-2.43,8.49-8.77,9.82-4.29-15.15-15.66-26.08-24.22-38.86-2.65-3.96-6.38-6.68-10.81-3.83-6.88,4.41.62,6.87,2.17,9.86,4.43,8.52,8.71,17.07,16,23.86,4.95,4.61,6.26,10.86,2.24,20.35-6.04-20.19-32.8-14.96-37.07-36.79,8.23.76,8.85,10.4,17.82,10.87,1.15-8.79-3.15-14.77-9.74-19.24-5.54-3.75-8.71,1.12-11.96,4.63-5.87,6.33-4.67,12.49.23,18.74,4.3,5.49,8.14,11.35,12.64,16.66,13.52,15.98,27.07,17.72,44.47,6.02.56.78,1.68,2.18,1.6,2.25-13.7,12.22-6.94,22.83,1.76,34.27,16.92,22.24,9.17,47.46,6.49,71.53-7.38,66.34-54.57,102.81-110.16,118.89-51.16,14.79-66.52,58.17-50.35,105.52h-6.44c-9.53-22.23-10.31-44.85-1.89-67.43,8.17-21.9,24.83-34.39,47.21-39.65,9.8-2.3,16.17-6.09,15.29-18.33-5.06-69.92,10.05-136.26,37.08-200.32,2.82-6.69,3.37-11.25-4.66-15.59-24.33-13.16-31.8-34.98-28.2-61.24.82-5.98.87-11.41-.64-17.34-9.69-38.07-4.05-73.75,19.71-105.31,23.87-31.7,47.41-63.85,86.47-79.58C206.31.66,235.36-2.18,264.97,1.55c17.72,2.23,34.52,8.67,45.99,23.86,2.89,3.83,6.37,4.84,10.78,5.79,38.29,8.27,62.09,36.87,63.72,76.35.51,12.32.09,24.69.78,37,1.26,22.46,3.34,44.53,17.97,63.61,5.38,7.01,7.95,16.94,6.89,26.09-3.44,29.82,15.41,53.83,18.88,85.09,4.3-11.38,4.13-11.36,3.2-20.54-.54-5.31-1.09-10.77-.45-16.02.86-7.1,3.22-14.56,11.75-15.18,9.47-.68,10.69,7.44,11.88,14.31,3.54,20.48,6.78,41.01,10.33,62.73,8.75-8.47,7.05-20.05,12.74-28.34,3.98-5.8,7.78-13.32,15.98-10.62,9,2.96,5.4,11.41,4.91,18.09-3.17,42.78-30.82,74.68-49.37,110.6-4.91,9.51-11.87,17.98-16.49,27.6-5.04,10.52-1.98,17.9,11.06,18.33,4.29.14,8.62.37,12.88.02,31.92-2.68,52.89,13.73,68.37,39.36,13.42,22.22,21.43,46.76,29.64,71.17,2.91,8.64,5.76,17.3,8.64,25.96h-9.67c-7.79-35.79-19.24-70.2-39.21-101.22-14.88-23.11-37.26-30.77-63.65-29.97-7.83.23-11.13,1.93-7.16,10.36,5.47,11.61,9.93,23.6,17.97,33.97,22.32,28.78,44.22,57.89,66.28,86.87h-9.67c-29.11-43.5-66.96-80.92-88.16-130.1-5.5-12.77-7.74-21.85-.27-33.9,15.52-25.04,29.86-50.82,44.87-76.18,11.27-19.04,16.01-39.48,13.71-62.28-12.8,27.81-21.96,57.73-51.03,74.98-.93-8.96,5.65-11.98,9.85-16.29,4.94-5.09,9.62-9.98,9.72-17.76.32-24.86-5.8-48.89-9.35-73.25-.35-2.43-.87-5.96-4.21-6.04-4.39-.12-4.85,3.86-4.81,6.89.22,15,.69,30,1.22,44.99.49,13.58-.07,26.92-6.66,39.44-.61-33.59-18.42-61.98-24.79-93.68-7.95,10.51-6.22,21.76-4.66,32.45,2.72,18.54,6.79,36.87,10.16,55.31.61,3.36,3.58,7.54-1.25,9.9-5.87,2.87-5.93,2.58-6.15,7.47-.63,14.17-1.65,28.19-19.09,40.01,5.59-15.27,16.18-25.22,9.37-40.03-14.16,10.45-14.9,27.08-23.13,39.12-6.16,9.02-5.23,16.19,1.54,24.5,9.16,11.23,17.68,23.28,18.11,38.65.58,20.65,6.02,40.2,12.51,59.57,8.52,25.41,17,50.83,25.5,76.24h-6.44c-15.05-43.52-33.52-86.08-38.69-132.41-1.42-12.76-5.94-23.61-12.87-34.11-30.37-46-75.56-81.13-97.68-133.21-1.35-3.19-4.47-7.51-8.63-5.2-3.99,2.21-1.78,6.74-.4,10.12,9.87,24.14,13.32,51.08,31.39,71.69,2.11,2.41,5.5,5.55.7,11.19-20.88-29.2-42-57.23-48.69-93.15-1.27-6.83-2.5-13.76-4.75-20.29-1.45-4.2-3.48-10.61-9.53-8.55-4.96,1.69-2.7,7.4-2.06,11.46,1.41,9,4.72,18.02,4.36,26.91-.94,23.42,7.04,42.93,21.94,60.38,2.33,2.73,6.63,6.06,2.01,11.84-16.68-18.37-30.78-37.21-30.85-63.3-.04-14.01-1.44-27.98-7.58-40.79-3.07-6.4-5.7-17.87-13.89-14.84-9.76,3.61-3.27,14.26-1.04,21,9.21,27.92,15.34,56.96,29.48,83.18,2.37,4.4,5.43,9.55,1.32,15.39-1.35-.92-3.26-1.49-3.71-2.64-11.1-28.42-34.84-50.42-41.18-81.36-.93-4.55-3.7-11.83-10.59-9.23-5.43,2.06-3.37,8.74-2.29,13.04,5.19,20.79,9.99,41.78,21.81,60.21,11.58,18.05,25.63,35.05,33.99,54.49,12.01,27.95,30.65,46.84,58.01,58.98,12.29,5.45,24.35,13.7,26.7,28.24,5.47,33.83,17.01,66.51,18.97,100.98h-6.44ZM92.29,260.62c6.01-23.41,20.72-34.76,40.4-40.37,11.21-3.19,16.72-11.1,19.47-21.5,3.29-12.44,6.01-25.03,9.3-37.47,1.37-5.19,1.75-11.34,11.3-15.57-10.53,26.83-6.98,54.92-26.12,75.85-2.94,3.22-2.88,7.15-.44,10.4,6.18,8.22,11.44,17.37,21.23,24.35,7.54-19.14,10.51-37.5,9.96-56.42-.58-19.79,3-38.75,13.14-55.69,14.86-24.83,30.6-49.15,46.4-73.41,6.19-9.51,14.52-17.17,24.5-22.9,7.74-4.44,16.03-6.68,24.74-4.99,30.57,5.92,56.94,18.36,72.47,47.5,5.15,9.67,11.19,18.87,17.88,30.06,4.59-43.74-18.97-76.09-58.24-82.68-4.48-.75-8.4-1.63-10.8-5.77-7.69-13.26-20.68-18.6-34.46-21.6-50.06-10.9-94.85.46-133.04,34.61-17.21,15.39-31.84,33.56-44.77,52.68-19.06,28.18-25.49,59.12-17.14,96.21,10.48-14.12,18.9-25.47,27.33-36.81,1.38.34,2.76.67,4.14,1.01-16.01,31.63-48.92,60.66-17.26,102.52Zm-20.01,198.98c1.3,11.41,2.6,20.94,3.42,30.52.74,8.75,5.51,10.37,11.72,5.88,35.41-25.6,74.66-48.29,79.5-98.58,2.74-28.42,10.51-56.92-10.54-83.1-9.04-11.25-21.67-15.02-31.95-23.09-7.31-5.74-9.85-4.16-13.51,3.64-24.78,52.79-30.68,109.77-38.64,164.75Zm325.78-148.5c-8.08,9.57-9.87,20.26-11.82,30.42-3.64,18.96-14.93,28.82-33.39,31.65-3.7.57-7.41,1.16-11.05,2-10.45,2.41-11.94,8.16-5.39,16.09,7.15,8.65,14.65,17.02,22.05,25.46,2.18,2.49,6.01,5.57,7.83,1.81,9.68-19.94,24.99-37.12,33.46-56.58,5.57-12.79,4.83-33.08-1.69-50.86Z"/>
  </g>
</svg>