<?xml version="1.0" encoding="UTF-8"?>
<svg id="Layer_2" data-name="Layer 2" xmlns="http://www.w3.org/2000/svg" viewBox="0 0 2173.69 2019.71">
  <defs>
    <style>
      .cls-1 {
        stroke-width: 0px;
      }
    </style>
  </defs>
  <g id="Layer_2-2" data-name="Layer 2">
    <g>
      <path class="cls-1" d="m1754.83,924.55c-28.42,90.39-55.35,176.18-82.4,261.92-5.85,18.54-11.5,37.18-18.42,55.32-16,41.99-47.69,64.4-90.13,64.78-43.01.39-77.62-21.95-92.94-64.1-12.02-33.07-20.34-67.5-30.25-101.34-37.82-129.21-71.69-259.46-101.09-390.85-13.51-60.38,24.74-106.9,84.22-103.39,33.85,2,62.82,27.72,70.79,65.41,13.7,64.76,25.63,129.89,39.39,194.63,13.3,62.55,23.37,125.9,45.39,192.95,12.73-38.01,24.61-70.61,34.54-103.78,20.24-67.57,39.45-135.44,59.04-203.2,11.63-40.24,53.11-72.28,92.81-71.58,41.82.73,71.05,27.45,84.6,73.11,28.48,95.91,58.29,191.43,87.63,287.08,1.4,4.58,3.48,8.95,7.25,18.51,5.54-23.19,10-41.07,14.09-59.05,24.14-105.97,41.8-213.19,61.02-320.1,7.59-42.24,33.92-70.61,67.83-73.84,55.62-5.3,95.42,39.22,83.31,94.71-23.19,106.19-48.94,211.78-78.3,316.45-15.94,56.83-32.29,113.55-48.77,170.23-14.04,48.28-48.21,77.14-91.69,78.14-50.12,1.16-83.45-23.18-100.15-75.01-32.45-100.68-64.23-201.57-97.76-307Z"/>
      <path class="cls-1" d="m507.06,1025.81c0-27.92,0-55.84,0-83.76.02-71.31-.47-142.63.29-213.93.42-39.49,28.18-69.4,67.22-75.29,31.75-4.79,65.46,16.83,77.97,49.44,4.02,10.47,3.87,21.15,3.87,31.93.04,166.39.06,332.79.02,499.18,0,41.22-18.41,67.2-54.77,77.83-35.63,10.41-73.53-3.36-93.76-36.09-65.19-105.47-137.35-206.16-209.59-306.79-16.71-23.28-34.21-45.99-52.28-70.22-8.82,8.99-5.76,17.95-5.78,25.73-.25,99.4-.24,198.81-.08,298.21.02,13.76-.66,27.41-3.95,40.74-7.4,30.03-32.29,51.01-64.93,55.28-28.07,3.67-60.28-13.58-73.53-39.69-6.62-13.04-9.73-27.02-9.73-41.68.01-164.23-.23-328.46.15-492.69.11-49.19,26.99-82.36,73.19-90.24,37.52-6.4,65.44,11.51,87.44,40.06,32.98,42.78,65.62,85.82,98.23,128.88,48.27,63.73,96.37,127.58,144.58,191.36,3.4,4.49,7.06,8.78,10.59,13.17l4.85-1.44Z"/>
      <path class="cls-1" d="m809.38,982.04c0-94.39-.08-188.78.04-283.17.04-34.2,13.33-50,47.67-50.3,108.79-.95,217.61-1.53,326.39.14,53.25.82,83.81,41.42,68.69,85.26-9.77,28.33-33.42,44.55-66.94,44.69-67.01.29-134.03.75-201.02-.28-19.85-.31-26.88,5.82-25.82,25.81,1.46,27.3.93,54.76.17,82.12-.42,15.07,5.42,20.17,20.29,20.02,58.36-.56,116.73-.33,175.09-.16,43.08.12,70.79,25.66,70.52,64.56-.25,36.89-29.01,63.09-70.3,63.28-57.64.27-115.29.54-172.93-.19-16.58-.21-23.25,4.72-22.78,22.08,1,36.72,1,73.51,0,110.23-.48,17.58,6.81,22.1,23.06,21.98,74.21-.55,148.43-.6,222.65-.05,43.54.33,72.21,27.51,72.13,66.57-.07,36.57-30.22,63.91-72.41,64.12-85.02.42-170.05.15-255.07.15-28.82,0-57.65.43-86.46-.17-35.55-.74-52.91-18.47-52.95-53.51-.12-94.39-.04-188.78-.04-283.17Z"/>
      <path class="cls-1" d="m225.64,2019.71c-9.54-2.16-10.44-10.86-13.03-18.02-21.8-60.41-56.75-111.26-108.32-150.23-24.93-18.83-52.21-33.01-81.55-43.66-8.79-3.19-23.19-2.3-22.73-15.52.38-10.89,13.34-11.45,21.79-14.64,81.13-30.56,142.28-83.13,178.92-162.53,5.41-11.72,9.11-24.22,13.75-36.3,2.07-5.39,4.16-11.79,10.72-12.37,8.17-.72,10.32,6.37,12.54,12.53,12.06,33.36,27.62,64.85,48.84,93.45,37.15,50.08,85.38,84.98,143.96,105.89,8.47,3.02,20.52,3.38,20.22,15.67-.27,11.03-11.94,10.96-19.53,13.88-93.36,35.84-159.38,98.5-191.86,194.42-2.41,7.11-3.16,16.17-13.73,17.41Z"/>
      <path class="cls-1" d="m1649.46,227.27c-1.84,9.2-10.57,10.03-17.77,12.55-60.7,21.29-111.14,56.77-150.12,108.16-19.74,26.03-34.79,54.49-44.89,85.63-2.51,7.73-2.96,19.24-14.38,18.62-9.38-.51-10.3-10.77-13-18-32.19-86.45-88.2-150.74-174.13-187.14-8.59-3.64-17.6-6.31-26.33-9.63-5.36-2.04-11.82-3.96-12.31-10.65-.6-8.1,6.36-10.42,12.54-12.53,35.7-12.18,68.67-29.25,98.56-52.53,48.57-37.83,82.35-85.9,102.01-144.07,2.49-7.37,3.19-17.31,12.99-17.66,10.05-.36,11.07,9.8,13.75,16.97,35.82,95.84,99.2,163.89,197.74,196.72,11.81,3.93,15.41,7.59,15.34,13.58Z"/>
      <path class="cls-1" d="m378.03,378.99c-5.17-.74-6.85-5.06-8.25-8.96-23.31-64.89-65.95-110.36-132.21-132.33-4-1.33-9.07-3.07-8.85-8.06.33-7.27,7.5-8.05,12.57-9.94,40.76-15.24,75.35-38.66,100.76-74.61,11.72-16.58,20.73-34.46,27.23-53.69,1.56-4.62,2.63-10.72,8.32-11.55,6.55-.96,7.81,5.55,9.43,9.95,23.49,63.8,65.17,109.29,130.78,131.06,4.49,1.49,10.97,2.86,10.21,9.27-.66,5.6-6.62,6.84-11.33,8.61-62.77,23.65-107.65,65.04-129.35,129.74-3.02,9-5.57,10.63-9.31,10.5Z"/>
      <path class="cls-1" d="m1957.59,1568.66c-1.39,5.63-6.15,6.39-10,7.79-64.8,23.53-110.48,66.15-132.63,132.38-1.4,4.19-3.08,9.23-7.72,9.43-6.27.27-7.34-5.99-9.03-10.6-23.46-63.98-65.88-108.95-131.1-131.24-4.52-1.54-11.15-2.45-10.5-8.92.57-5.63,6.59-6.9,11.34-8.6,64.38-23.02,108.79-65.99,130.97-131.15,1.58-4.63,2.12-10.8,8.94-10.11,5,.5,6.03,5.51,7.49,9.58,23.31,64.86,65.42,110.94,132.16,132.52,4.63,1.5,9.99,2.72,10.07,8.92Z"/>
    </g>
  </g>
</svg>