<?xml version="1.0" encoding="UTF-8"?>
<svg id="Layer_2" data-name="Layer 2" xmlns="http://www.w3.org/2000/svg" viewBox="0 0 2148.99 2251.21">
  <defs>
    <style>
      .cls-1 {
        stroke-width: 0px;
      }
    </style>
  </defs>
  <g id="Layer_2-2" data-name="Layer 2">
    <g>
      <path class="cls-1" d="m823.64,2251.21c-16.5-14.65-19.45-31.91-14.81-53.51,21.49-100.07,41.76-200.41,62.23-300.7,4.87-23.87,18.23-35.27,43.03-39.06,224.71-34.34,449.29-69.5,673.83-104.86,53.57-8.44,103.36-27.58,146.58-60.87,104.41-80.42,208.32-161.49,312.4-242.33,24.16-18.77,35.65-42.73,27.05-73.21-7.29-25.85-25.8-39.85-51.96-44.39-16.06-2.79-30.31,3.12-44.4,9.15-112.38,48.06-224.89,95.82-336.85,144.83-20.83,9.12-42.15,12.39-63.84,13.61-72.3,4.05-144.67,6.66-217,10.19-42.35,2.07-84.82,3.37-126.96,7.7-53,5.44-103.06-9.77-154.05-18.34-41.8-7.02-83.38-15.46-124.84-24.27-18.14-3.85-28.79-.41-37.32,18.22-22.85,49.9-48.24,98.64-72.71,147.8-3.25,6.54-6.16,13.52-10.71,19.1-11.79,14.47-26.4,20.8-44.51,11.5-16.64-8.55-23.77-26.54-16.1-44.9,8.74-20.91,19-41.2,29.03-61.54,32.03-65.02,63.05-130.57,96.77-194.71,31.83-60.55,55.62-124.11,77.43-188.61,15.77-46.63-1.36-92.66-41.66-112.89-39.55-19.85-85.24-7.18-114.06,32.4-43.1,59.19-86,118.52-128.43,178.19-10.48,14.75-23.22,25.5-39.02,34.27-104.44,57.99-201.09,125.85-274.86,221.88-44.35,57.73-75.82,121.44-90.12,193.27-2.12,10.63-6.38,21-10.79,30.99-66.25,149.97-132.67,299.86-199.15,449.73-6.79,15.3-12.23,31.64-27.52,41.35h-30.76c-22.58-19.82-24.79-30.51-10.86-61.96,65.81-148.55,131.48-297.17,198.05-445.39,14.52-32.34,20.42-67.09,32.61-100.02,34.44-92.99,87.03-173.93,159.88-241.16,14.37-13.26,19.45-26.97,19.16-45.93-.94-60.03-.37-120.09-.33-180.13.03-42.14,10.23-53.45,53.07-53.93,71.02-.8,142.08-1.23,213.08.23,23.99.49,39.35-6.75,52.47-27.02,25.09-38.75,51.57-76.88,97.02-95.53,8.26-3.39,8.98-12.43,10.88-20.41,15.43-64.78,68.88-108.56,136.16-109.3,17.86-.2,22.91-8,24.89-22.75,9.13-68.08,18.29-136.15,27.67-204.19,16.95-123.06,34.05-246.11,51.1-369.16,7.72-55.74,15.85-111.42,23.06-167.22,4.09-31.67-2.1-38.34-33.41-38.35-232.13-.07-464.26-.08-696.39.02-31.8.01-36.85,6.54-32.56,37.96,25.49,186.81,50.69,373.65,76.29,560.44,14.99,109.32,30.53,218.55,45.87,327.82,3.23,23-8.57,41.52-28.51,44.45-22.54,3.31-38.83-9.35-42.25-34.1-19.42-140.42-38.45-280.9-57.87-421.33-21.32-154.17-43.03-308.29-64.18-462.49-2.17-15.79-4.69-31.63-1.9-47.98C279.93,30.65,313.87.2,357.7.16c245.31-.2,490.62-.25,735.93.02,54.96.06,94.15,46.77,86.41,103.65-19.39,142.64-39.77,285.15-59.58,427.74-14.78,106.4-29.03,212.87-44.12,319.23-3.19,22.46,11.3,19.29,24.32,19.29,199.91.05,399.82-.33,599.73.28,60.05.18,102.46,30.59,128.74,83.63,12.67,25.57,13.43,53.79,13.55,81.61.37,84.94.1,169.89.16,254.83.02,30.1.97,30.58,29.42,18.37,27.57-11.84,55.21-23.51,82.8-35.32,66.61-28.5,137.38-8.07,173.58,50.16,36.44,58.62,23.25,133.51-34.14,178.91-103.35,81.76-207.62,162.35-311.82,243.04-66.25,51.3-143.45,73.21-225.12,85.25-157.59,23.24-314.86,48.68-472.28,73.12-41.88,6.5-83.72,13.3-125.74,18.75-15.62,2.03-22.48,8.6-25.6,24.2-17.66,88.17-36.59,176.09-54.49,264.22-3.19,15.68-8.82,29.25-20.66,40.06h-35.15Zm588.52-1094.08c-111.21,0-222.42.34-333.62-.35-17.98-.11-26.62,5.52-29.7,23.54-2.93,17.19-8.41,34.03-13.7,50.73-17.07,53.83-40.79,104.88-65.49,155.53-3.49,7.16-13.92,17.24,4.94,20.19,100.55,15.71,198.36,46.97,303.15,36.41,101.63-10.25,204.27-10.58,306.48-15.04,9.82-.43,18.54-3.62,27.29-7.39,45.68-19.64,91.09-39.94,137.22-58.48,16.64-6.69,23.55-15.21,22.97-33.85-1.41-45.32-.45-90.71-.46-136.07q0-35.2-34.24-35.23c-108.28-.02-216.56,0-324.84,0Zm-70.18-214.97c-117.08,0-234.17.29-351.25-.22-25.79-.11-47.36,6.51-63.82,27.26-10.6,13.36-10.3,20.32,8.58,24.95,40.85,10.02,73.44,33.44,94.11,70.18,9.25,16.44,19.77,21.5,38.08,21.44,214.41-.62,428.82-.4,643.22-.4q60.84,0,60.34-61.21c-.45-54.83-27.42-81.91-82.4-81.98-115.62-.16-231.24-.05-346.86-.03Zm-763.91,251.63c-22.64,0-45.29.47-67.91-.18-13.66-.39-20.21,4.13-19.98,18.7.52,33.59.5,67.19-.04,100.78-.24,15.09,4.62,16.12,16.27,8.72,30.19-19.19,59.94-39.31,91.38-56.23,25.78-13.87,41.93-35.46,57.92-58.22,7.65-10.89,3.99-13.74-7.52-13.64-23.37.21-46.74.06-70.11.06Z"/>
      <path class="cls-1" d="m2146.56,376.76c1.12,168.54-112.33,315.87-273.8,357.03-34.02,8.67-58.41-9.54-52.47-39.34,3.71-18.62,18.04-25.67,34.26-29.89,59.98-15.62,110.56-46.8,150.1-94.19,73.5-88.08,93.12-188.39,54.43-295.82-38.42-106.68-116.48-173.35-228.87-192.35-192.69-32.58-357.84,114.95-350.39,309.89,4.48,117.41,85.18,225.04,198.84,265.07,9.66,3.4,19.6,6,29.21,9.5,21.8,7.94,30.98,23.86,25.83,44.11-4.76,18.73-23.51,29.11-45.18,24.09-33.76-7.81-65.69-20.76-95.29-38.6-117.7-70.94-182.01-176.49-184.71-312.66-4.11-207.4,151.42-353.18,325.04-375.46,188.91-24.24,384.33,107.56,412.74,322.57,1.99,15.1.26,30.69.26,46.06Z"/>
      <path class="cls-1" d="m725.79,789.48c-88.31,3.22-159.19-91.62-125.74-176.25,23.64-59.83,58.96-112.7,97.82-163.24,15.71-20.43,40.59-20.1,56.4.24,38.72,49.8,74.48,101.87,96.69,161.34,32.83,87.91-31.29,177.99-125.17,177.91Zm62.38-137.74c-7.01-37.8-32.79-73.58-56.21-110.41-4.87-7.65-9.71-3.52-13.34,2.17-19.66,30.8-39.88,61.24-52.17,96.1-8.7,24.67-.79,44.7,16.71,61.54,19.41,18.68,43.34,21.46,67.29,11.94,23.52-9.35,36.82-28.01,37.73-61.34Z"/>
      <path class="cls-1" d="m1946.57,300.02c.24,15.87-5.4,24.87-13.48,32.93-48.66,48.54-97.03,97.37-145.91,145.68-20.5,20.26-38.15,20.1-59.07-.21-26.23-25.46-52.04-51.36-77.55-77.54-18.35-18.84-19.82-38.77-5.14-54.37,14.95-15.88,34.74-15.38,54.36,2.59,15.09,13.81,29.79,28.16,43.49,43.34,10.78,11.94,18.56,12.35,30.17.35,36.59-37.83,74.16-74.73,111.59-111.74,11.13-11,24.35-16.35,39.91-9.59,14.12,6.14,21.29,17.22,21.63,28.56Z"/>
      <path class="cls-1" d="m1340.3,1316.44c-14.58,0-29.22.8-43.73-.2-19.29-1.33-31.66-12.86-33.28-31.67-1.62-18.78,8.4-33.23,27.38-36.63,33.14-5.94,66.84-5.59,100.01-.4,19.9,3.12,29.71,18.72,27.3,38.39-2.41,19.7-14.9,29.43-33.96,30.46-14.54.79-29.15.16-43.74.16,0-.04,0-.08,0-.12Z"/>
    </g>
  </g>
</svg>