<?xml version="1.0" encoding="UTF-8"?>
<svg id="Layer_2" data-name="Layer 2" xmlns="http://www.w3.org/2000/svg" viewBox="0 0 2043.92 2041.76">
  <defs>
    <style>
      .cls-1 {
        stroke-width: 0px;
      }
    </style>
  </defs>
  <g id="Layer_2-2" data-name="Layer 2">
    <g>
      <path class="cls-1" d="m601.1,2041.68c-138.25,0-276.5.16-414.75-.05-92.99-.14-163.41-56-182.56-146.39-10.23-48.28.69-93.25,26.91-135.24,85.69-137.26,170.78-274.9,256.1-412.39,35.91-57.86,71.67-115.81,107.78-173.55,24.2-38.69,36.81-80.18,36.33-126.28-.89-85.64-.4-171.29-.05-256.94.05-13.06-1.25-23-15.73-28.72-13.31-5.25-16.92-18.42-17.05-31.96-.19-20.23-.5-40.47.05-60.69.68-24.97,12.31-36.86,37.75-37.75,24.25-.84,48.55-.3,72.83-.3,83.62-.01,167.25-.08,250.87.04,36.06.05,47.25,10.9,47.72,46.97.25,19.51-.44,39.07-1.54,58.56-.74,13.12-7.27,23.77-20.2,27.62-11.8,3.51-13.16,11.02-13.14,21.39.24,87.67-.44,175.35.4,263.01.44,46.09,14.62,88.21,39.24,127.69,122.02,195.66,243.53,391.64,364.55,587.92,44.97,72.93,37.6,152.48-18.44,217.08-35.83,41.31-82.45,59.7-136.26,59.84-140.27.38-280.55.13-420.82.13Zm112.01-1107.69c-.07,0-.13,0-.2,0,0-48.53-.61-97.07.33-145.58.33-17.1-5.82-21.92-22.24-21.7-57.96.77-115.94.92-173.89-.07-18.26-.31-24.54,4.77-24.33,23.8.94,84.24-.31,168.51.64,252.75.68,60.6-15.98,115.37-48.15,166.29-36.35,57.54-71.47,115.85-107.93,173.32-9.28,14.63-6.02,17.18,9.81,17.56,51.99,1.23,103.16,9.18,153.62,21.66,82.45,20.4,161.49,52.02,243.37,74.31,58.76,16,118.54,24.94,179.46,24.53,27.15-.18,27.94-2.53,14.33-24.51-62.08-100.26-124.44-200.35-186.1-300.87-25.87-42.18-39.48-88.18-38.84-138.17.52-41.11.11-82.23.11-123.34Zm-298.95,778c35.69.06,60.92-25.2,60.84-60.91-.08-34.05-27.55-62.08-61.01-62.24-32.37-.15-62.31,29.81-62.15,62.19.17,33.35,28.34,60.91,62.32,60.96Zm372.22,98.14c.05-28.51-21.68-50.25-49.79-49.84-27.09.4-48.74,22.02-49.09,49.01-.36,27.77,21.99,51.12,49.2,51.38,27.36.27,49.63-22.4,49.68-50.55Z"/>
      <path class="cls-1" d="m2043.26,757.48c0,182.34-154.48,276.68-285.64,208.84-24.53-12.69-47.91-27.57-72.14-40.84-10.64-5.83-12.73-12.35-6.21-22.67,6.1-9.67,11.83-19.68,16.59-30.06,6.21-13.54,2.88-25.45-10.09-33.07-13.41-7.88-24.56-2.87-33.61,8.42-1.68,2.09-2.69,4.72-4.4,6.77-8.75,10.49-10.3,32.8-24.88,31.01-20.07-2.46-37.4-17.42-54.45-29.45-5.9-4.16-2.25-9.81.26-14.49,5.41-10.1,12.12-19.63,16.44-30.15,5.86-14.26,5.64-28.41-10.47-36.41-14.98-7.44-25.75-.29-34.06,12.28-.37.56-.65,1.19-1.06,1.72-8.85,11.42-11.16,34.42-25.26,33.54-20.05-1.26-36.99-17.71-54.64-28.75-6.11-3.82-3.77-9.35-1.06-14.27,5.53-10.03,11.88-19.68,16.68-30.05,6.61-14.29,6.4-28.66-9.07-36.82-14.02-7.4-26.07-1.77-34.69,11.16-1.12,1.68-2.08,3.49-3.35,5.06-8.5,10.49-9.97,32.88-24.9,30.4-19.86-3.3-37.5-17.52-54.27-30-5.67-4.22-1.21-10.06,1.18-14.61,5.32-10.15,12.12-19.63,16.44-30.15,5.51-13.44,5.35-26.94-9.32-35.27-14.79-8.39-25.86-1.6-34.6,10.53-4.32,6-7.84,12.58-11.51,19.02q-12.95,22.71-36.23,9.12c-.58-.34-1.14-.72-1.72-1.07q-37.09-21.74-18.15-60.89c7.1-14.69,9.09-28.97-6.98-39.05-13.31-8.34-27.77-2.26-38.26,14.77-21.86,35.51-21.98,35.73-58.49,14.72-110.42-63.55-220.82-127.16-331-191.13-14.1-8.19-26.09-12.63-43.08-5.07-23.32,10.38-50.2,1.68-66.15-16.76-16.65-19.25-20.28-47.7-6.68-71.93,31.35-55.84,63.73-111.1,95.72-166.57,24.24-42.05,48.54-84.07,72.78-126.11,16.1-27.93,40.22-42.22,65.34-38.63,29.19,4.17,48.41,23.29,54.35,56.69,2.15,12.09,8.07,18.57,18.14,24.38,307.79,177.4,615.31,355.26,923.21,532.46,69.31,39.89,108.29,97.01,109.31,143.41Zm-555.37-324.81c.34-1.19.69-2.39,1.03-3.58-10.78-6.31-21.54-12.67-32.36-18.93-158.05-91.36-316.18-182.6-474.06-274.27-12.84-7.45-19.37-6.03-26.86,7.23-38.12,67.44-76.91,134.51-116.08,201.34-7.05,12.03-6.14,18.4,6.57,25.3,30.18,16.39,59.89,33.7,89.24,51.54,13.17,8,26.43,11.62,41.9,11.59,164.42-.36,328.84-.22,493.26-.22h17.35Z"/>
      <path class="cls-1" d="m1739.74,1374.94c0,17.53-1.14,35.15.31,52.56,1.49,17.85-5.01,28.29-20.81,36.93-41.97,22.95-83.2,47.31-124.31,71.8-12.38,7.38-22.58,7.96-35.37.26-40.42-24.33-81.17-48.17-122.6-70.71-17.42-9.48-25.21-20.54-24.14-41.24,1.87-36.31.06-72.8.76-109.19.24-12.45-4.3-19.82-14.9-25.82-43.4-24.57-86.62-49.49-129.53-74.91-9.07-5.37-15.31-3.58-23.81,1.22-34.45,19.45-68.85,18.08-100.41-5.89-29.47-22.38-41.11-53.47-32.97-89.56,8.65-38.37,33.37-61.99,72.57-69.81,51.62-10.3,101.68,29.91,104.81,86.06.78,13.95,5.07,22.05,17.01,28.74,41.16,23.06,82.06,46.6,122.55,70.81,11.64,6.96,20.69,5.59,31.64-.94,33.57-20.02,67.86-38.85,101.39-58.94,10.62-6.36,19.03-6.4,29.69-.02,33.53,20.09,67.91,38.75,101.39,58.93,11.94,7.2,21.42,7.19,33.42.02,39.92-23.85,80.32-46.91,120.87-69.68,11.44-6.42,16.93-13.1,17.47-27.86,1.8-49.04,35.2-83.14,83.36-88.74,37.84-4.4,79.05,23.8,91.45,62.56,11.26,35.22.2,73.02-28.35,96.9-27.05,22.61-66.58,27.41-98.46,9.42-13-7.34-22.17-7.06-34.65.48-39.79,24.05-80.06,47.36-120.83,69.71-13.9,7.62-18.86,16.94-17.83,32.3,1.21,18.12.28,36.39.28,54.59Zm-540-263.65c-14.93-.35-26.44,10.83-27.14,26.36-.78,17.22,9.55,28.14,26.6,28.13,16.22,0,27.35-10.19,27.83-25.46.48-15.26-12.13-28.68-27.29-29.04Zm754.23-.03c-15.21.33-29.41,14.34-27.53,28.78,2.07,15.84,11.24,25.59,28.23,25.73,15.26.13,27.27-11.53,27.36-26.27.1-15.78-12.62-28.58-28.06-28.25Z"/>
      <path class="cls-1" d="m1223.33,1684.1c0-24.95.48-49.91-.19-74.84-.35-12.95,4.11-21.21,15.62-27.69,44.65-25.13,88.96-50.84,133.15-76.77,10.24-6.01,18.69-7.23,29.72-.66,44.6,26.55,89.62,52.39,134.87,77.81,11.55,6.49,15.93,14.92,15.79,27.73-.4,37.08.76,74.2-.48,111.25-.6,18.11,6.23,28.12,21.83,36.55,37.94,20.52,75.43,41.96,112.06,64.72,14.58,9.06,25.14,8.44,40.24.71,45.41-23.26,99.33-2.93,120.65,43.38,20.54,44.62-.37,99.45-45.36,118.93-46.75,20.24-99.73-1.08-119.42-48.09-3.41-8.15-6.75-16.68-5.29-25.47,3.23-19.49-7.11-28.93-22.8-37.52-38.41-21.06-76.3-43.11-113.81-65.75-13.71-8.28-24.81-8.83-38.82-.18-32.67,20.19-66.51,38.48-99.54,58.1-9.81,5.83-18.01,6.27-28.04.34-44.68-26.42-89.55-52.52-134.73-78.08-11.43-6.47-16.06-14.55-15.68-27.6.75-25.6.22-51.24.22-76.87Zm541.97,246.09c14.43,0,27.49-12.32,27.97-26.38.5-14.61-13.26-28.01-28.66-27.91-14.75.09-27.54,12.19-27.98,26.48-.46,14.91,12.84,27.81,28.67,27.81Z"/>
      <path class="cls-1" d="m493.21,179.47c.12,45.49-37.58,84.06-83.07,84.98-45.39.92-85.22-38.81-85.27-85.06-.05-46.68,38.36-84.74,85.33-84.56,45.44.18,82.89,38.36,83.01,84.64Z"/>
      <path class="cls-1" d="m538,380.13c36.91.24,67.04,30.21,67.26,66.9.21,35.63-31.66,66.95-67.82,66.64-36.46-.31-67.14-31.17-66.79-67.18.36-36.78,30.62-66.6,67.36-66.36Z"/>
    </g>
  </g>
</svg>