<?xml version="1.0" encoding="UTF-8"?>
<svg id="Layer_2" data-name="Layer 2" xmlns="http://www.w3.org/2000/svg" viewBox="0 0 2441.74 2441.23">
  <defs>
    <style>
      .cls-1 {
        stroke-width: 0px;
      }
    </style>
  </defs>
  <g id="Layer_2-2" data-name="Layer 2">
    <path class="cls-1" d="m0,2003.07c16.68-77.51,47.8-147.42,104.76-204.49,125.51-125.76,309.39-151.76,463.58-63.93,15.98,9.1,25.34,8.77,38.44-4.53,74.6-75.79,149.9-150.9,225.55-225.65,11.64-11.5,13.2-19.57,4.14-34.25-93-150.65-99.94-305.62-19.59-463.59,8.17-16.06,6.13-24.17-7.41-35.33-54.49-44.91-108.39-90.57-161.36-137.26-13.36-11.78-22.16-11.34-36.76-2.66-176.1,104.76-399.41,13.69-451.68-183.64-43.79-165.33,62.31-337.02,230.84-373.53,168.1-36.42,335.17,77.19,363.59,246.23,9.49,56.46,3.8,110.81-17.96,163.14-7.17,17.24-3.97,26.85,9.8,38.29,55.53,46.14,110.47,93.02,164.87,140.5,11.38,9.93,17.99,6.9,28.12-1,78.85-61.49,169.03-93.95,268.47-96.85,92.6-2.7,179.18,21.56,256.99,72.58,16.82,11.03,26.04,9.55,39.88-4.42,117.85-118.97,236.29-237.36,355.23-355.24,13.16-13.05,13.74-22.73,5.8-38.77-92.01-185.77,24.68-409.17,230.25-435.8,212.35-27.51,345.28,147.7,345.91,298.18.68,162.92-133.23,310.23-313.98,307.43-44.99-.7-88.06-12.26-127.62-33.84-14.85-8.1-23.48-5.39-34.74,5.95-119.16,119.91-238.7,239.44-358.56,358.64-11.35,11.28-14.18,19.27-4.6,34.14,63.54,98.67,87.22,206.31,68.05,322.53-2.32,14.09,2.44,20.25,14.69,24.94,113.32,43.41,226.59,86.93,339.63,131.05,13.17,5.14,19.92.02,28.64-8.38,65.15-62.79,142.33-82.37,228.13-55.2,84.42,26.73,137.63,84.89,156.15,172.86,25.48,121.03-59.89,246.15-182.28,266.94-129.29,21.96-250.45-64.64-265.25-191.52-3.4-29.1-13.36-45.13-42.52-55.67-103.65-37.49-206.24-77.95-308.85-118.26-17.93-7.04-28.19-5.28-38.98,11.85-30.82,48.9-70.8,89.65-118.92,121.74-13.48,8.99-14.78,17.04-8.7,31.26,48.63,113.78,96.72,227.8,144.45,341.97,5.8,13.88,14.45,17.9,28.88,19.03,102.28,7.99,175.13,57.92,210.02,155.72,42.25,118.42-23.79,248.31-144.39,288.6-8.25,2.76-16.47,5.6-24.7,8.41h-90.49c-1.43-.68-2.79-1.68-4.3-1.99-164.01-33.44-242.06-245.55-116.72-378.79,10.89-11.57,9.45-21.5,4.03-34.24-47.52-111.63-95.24-223.17-141.41-335.35-8.05-19.55-17.16-23.45-36.99-19.68-117.67,22.36-226.87-1.49-327.36-65.21-16.42-10.41-25.21-8.05-37.91,4.84-72.94,74.03-146.32,147.65-220.54,220.4-14.89,14.6-17.49,24.78-6.59,44.03,85.3,150.69,60.2,333.67-60.05,456.25-58.23,59.35-129.45,92.66-209.5,109.75h-119.07c-4.53-1.25-9-2.74-13.58-3.73-100.05-21.57-180.6-72.94-240.11-156.67-34.04-47.89-52.68-102.06-65.4-158.7v-119.07Z"/>
  </g>
</svg>