<?xml version="1.0" encoding="UTF-8"?>
<svg id="Layer_2" data-name="Layer 2" xmlns="http://www.w3.org/2000/svg" viewBox="0 0 503.14 153.79">
  <defs>
    <style>
      .cls-1 {
        fill: #51b748;
      }

      .cls-1, .cls-2 {
        stroke-width: 0px;
      }
    </style>
  </defs>
  <g id="Layer_1-2" data-name="Layer 1">
    <g>
      <path class="cls-1" d="m92.94,91.24c-4.95-1.22-9.55-2.53-14.23-3.48-4.96-1.01-9.95-1.99-14.98-2.41-6.03-.51-12.12-.79-18.16-.49-9.17.45-18.16,2.32-26.63,5.96-4.84,2.08-9.51,4.63-14.1,7.23-6.08,3.44-5.79,9.98-2.66,14.83,4.93,7.63,11.19,14.16,18.29,19.74,5.64,4.43,11.54,8.67,17.81,12.09,7.07,3.86,14.78,6.61,22.84,7.59,7.36.9,14.82,1.73,22.2,1.44,11.62-.45,23.04-2.53,33.79-7.38,7.64-3.45,14.53-8.03,20.19-14.18,8.04-8.73,12.73-19.27,15.68-30.67,3.02-11.64,3.68-23.52,2.9-35.4-.75-11.34-4.2-22.06-9.47-32.19-4-7.7-9.13-14.53-14.86-21.02-4.07-4.62-8.33-8.95-13.9-11.61-5.07-2.42-10.21-1.55-14.35,3.66-8,10.07-11.88,21.87-13.84,34.35-.91,5.84-1.55,11.81-1.46,17.71.17,11.49,1.81,22.84,4.93,34.24Z"/>
      <g>
        <rect class="cls-2" x="169.65" y="35.67" width="9.87" height="103.99"/>
        <polygon class="cls-2" points="253 139.65 205.99 74.97 205.99 139.65 196.12 139.65 196.12 56.25 204.77 56.25 252.12 121.51 252.12 56.25 261.99 56.25 261.99 139.65 253 139.65"/>
        <path class="cls-2" d="m342.19,139.65l-6.82-14.71h-50.52l-6.82,14.71h-10.94l38.88-83.4h8.18l39,83.4h-10.95Zm-11.47-24.58l-20.66-44.11-20.57,44.11h41.23Z"/>
        <path class="cls-2" d="m407.71,139.65l-10.64-18.31c-2.19.44-4.51.66-6.89.66h-22.42v17.65h-9.87V56.25h32.29c9.07,0,16.9,3.23,23.27,9.6,6.37,6.38,9.6,14.21,9.6,23.27s-3.23,16.9-9.6,23.27c-2.13,2.13-4.44,3.93-6.9,5.35l12.7,21.9h-11.54Zm-17.54-27.52c6.31,0,11.78-2.27,16.25-6.75,4.54-4.54,6.75-9.86,6.75-16.26s-2.27-11.78-6.75-16.26c-4.48-4.48-9.95-6.75-16.25-6.75h-22.42v46.01h22.42Z"/>
        <path class="cls-2" d="m492.19,139.65l-6.82-14.71h-50.52l-6.82,14.71h-10.94l38.88-83.4h8.18l39.01,83.4h-10.95Zm-11.47-24.58l-20.66-44.11-20.57,44.11h41.23Z"/>
      </g>
    </g>
  </g>
</svg>