<?xml version="1.0" encoding="UTF-8"?>
<svg id="Layer_2" data-name="Layer 2" xmlns="http://www.w3.org/2000/svg" viewBox="0 0 866.88 866.88">
  <defs>
    <style>
      .cls-1 {
        fill: #fff;
        stroke-width: 0px;
      }
    </style>
  </defs>
  <g id="Layer_1-2" data-name="Layer 1">
    <g>
      <path class="cls-1" d="m262.5,78.63h26.25v-26.25c-14.5,0-26.25,11.75-26.25,26.25h0Z"/>
      <path class="cls-1" d="m301.88,78.63h-13.12v-26.25h13.12c7.25,0,13.12,5.88,13.12,13.12s-5.88,13.12-13.12,13.12h0Z"/>
      <path class="cls-1" d="m393.75,78.63h26.25v-26.25c-14.5,0-26.25,11.75-26.25,26.25h0Z"/>
      <rect class="cls-1" x="420" y="52.38" width="26.25" height="26.25"/>
      <path class="cls-1" d="m446.25,52.38v26.25h26.25c0-14.5-11.75-26.25-26.25-26.25h0Z"/>
      <path class="cls-1" d="m538.12,52.38c7.25,0,13.12,5.88,13.12,13.12s-5.88,13.12-13.12,13.12-13.12-5.88-13.12-13.12,5.88-13.12,13.12-13.12h0Z"/>
      <rect class="cls-1" x="262.5" y="78.63" width="26.25" height="26.25"/>
      <path class="cls-1" d="m315,104.88h26.25v-26.25c-14.5,0-26.25,11.75-26.25,26.25h0Z"/>
      <rect class="cls-1" x="341.25" y="78.63" width="26.25" height="26.25"/>
      <rect class="cls-1" x="367.5" y="78.63" width="26.25" height="26.25"/>
      <rect class="cls-1" x="393.75" y="78.63" width="26.25" height="26.25"/>
      <rect class="cls-1" x="420" y="78.63" width="26.25" height="26.25"/>
      <path class="cls-1" d="m472.5,78.63h-26.25v26.25c14.5,0,26.25-11.75,26.25-26.25h0Z"/>
      <path class="cls-1" d="m551.25,104.88h26.25v-26.25c-14.5,0-26.25,11.75-26.25,26.25h0Z"/>
      <path class="cls-1" d="m577.5,78.63v26.25h26.25c0-14.5-11.75-26.25-26.25-26.25h0Z"/>
      <path class="cls-1" d="m262.5,118.01v-13.12h26.25v13.12c0,7.25-5.88,13.12-13.12,13.12s-13.12-5.88-13.12-13.12h0Z"/>
      <path class="cls-1" d="m315,118.01v-13.12h26.25v13.12c0,7.25-5.88,13.12-13.12,13.12s-13.12-5.88-13.12-13.12h0Z"/>
      <rect class="cls-1" x="367.5" y="104.88" width="26.25" height="26.25"/>
      <rect class="cls-1" x="393.75" y="104.88" width="26.25" height="26.25"/>
      <rect class="cls-1" x="420" y="104.88" width="26.25" height="26.25"/>
      <path class="cls-1" d="m538.12,104.88h13.12v26.25h-13.12c-7.25,0-13.12-5.88-13.12-13.12s5.88-13.12,13.12-13.12h0Z"/>
      <rect class="cls-1" x="551.25" y="104.88" width="26.25" height="26.25"/>
      <path class="cls-1" d="m603.75,104.88h-26.25v26.25c14.5,0,26.25-11.75,26.25-26.25h0Z"/>
      <path class="cls-1" d="m315,144.26v13.12h-26.25v-13.12c0-7.25,5.88-13.12,13.12-13.12s13.12,5.88,13.12,13.12h0Z"/>
      <path class="cls-1" d="m367.5,144.26v-13.12h26.25v13.12c0,7.25-5.88,13.12-13.12,13.12s-13.12-5.88-13.12-13.12h0Z"/>
      <path class="cls-1" d="m446.25,157.38v-26.25h-26.25c0,14.5,11.75,26.25,26.25,26.25h0Z"/>
      <path class="cls-1" d="m446.25,131.13v26.25h26.25c0-14.5-11.75-26.25-26.25-26.25h0Z"/>
      <path class="cls-1" d="m511.88,131.13c7.25,0,13.12,5.88,13.12,13.12s-5.88,13.12-13.12,13.12-13.12-5.88-13.12-13.12,5.87-13.12,13.12-13.12h0Z"/>
      <path class="cls-1" d="m275.62,157.38h13.12v26.25h-13.12c-7.25,0-13.12-5.88-13.12-13.13s5.88-13.12,13.12-13.12h0Z"/>
      <rect class="cls-1" x="288.75" y="157.38" width="26.25" height="26.25"/>
      <path class="cls-1" d="m354.38,157.38c7.25,0,13.12,5.88,13.12,13.12s-5.88,13.13-13.12,13.13-13.12-5.88-13.12-13.13,5.88-13.12,13.12-13.12h0Z"/>
      <path class="cls-1" d="m420,170.51v13.13h-26.25v-13.13c0-7.25,5.88-13.12,13.12-13.12s13.12,5.88,13.12,13.12h0Z"/>
      <path class="cls-1" d="m446.25,170.51v-13.12h26.25v13.12c0,7.25-5.87,13.13-13.12,13.13s-13.12-5.88-13.12-13.13h0Z"/>
      <path class="cls-1" d="m525,183.63h26.25v-26.25c-14.5,0-26.25,11.75-26.25,26.25h0Z"/>
      <path class="cls-1" d="m564.38,183.63h-13.12v-26.25h13.12c7.25,0,13.12,5.88,13.12,13.12s-5.88,13.13-13.12,13.13h0Z"/>
      <path class="cls-1" d="m315,209.88v-26.25h-26.25c0,14.5,11.75,26.25,26.25,26.25h0Z"/>
      <path class="cls-1" d="m315,183.63v26.25h26.25c0-14.5-11.75-26.25-26.25-26.25h0Z"/>
      <path class="cls-1" d="m367.5,209.88h26.25v-26.25c-14.5,0-26.25,11.75-26.25,26.25h0Z"/>
      <rect class="cls-1" x="393.75" y="183.63" width="26.25" height="26.25"/>
      <path class="cls-1" d="m420,183.63v26.25h26.25c0-14.5-11.75-26.25-26.25-26.25h0Z"/>
      <path class="cls-1" d="m511.88,183.63h13.12v26.25h-13.12c-7.25,0-13.12-5.88-13.12-13.12s5.87-13.12,13.12-13.12h0Z"/>
      <rect class="cls-1" x="525" y="183.63" width="26.25" height="26.25"/>
      <path class="cls-1" d="m603.75,196.76v13.12h-26.25v-13.12c0-7.25,5.88-13.12,13.12-13.12s13.12,5.87,13.12,13.12h0Z"/>
      <path class="cls-1" d="m275.62,209.88c7.25,0,13.12,5.88,13.12,13.12s-5.88,13.12-13.12,13.12-13.12-5.87-13.12-13.12,5.88-13.12,13.12-13.12h0Z"/>
      <path class="cls-1" d="m315,223.01v-13.12h26.25v13.12c0,7.25-5.88,13.12-13.12,13.12s-13.12-5.87-13.12-13.12h0Z"/>
      <rect class="cls-1" x="367.5" y="209.88" width="26.25" height="26.25"/>
      <rect class="cls-1" x="420" y="209.88" width="26.25" height="26.25"/>
      <path class="cls-1" d="m485.62,209.88c7.25,0,13.13,5.88,13.13,13.12s-5.88,13.12-13.13,13.12-13.12-5.87-13.12-13.12,5.88-13.12,13.12-13.12h0Z"/>
      <path class="cls-1" d="m525,223.01v-13.12h26.25v13.12c0,7.25-5.88,13.12-13.12,13.12s-13.12-5.87-13.12-13.12h0Z"/>
      <path class="cls-1" d="m577.5,223.01v-13.12h26.25v13.12c0,7.25-5.88,13.12-13.12,13.12s-13.12-5.87-13.12-13.12h0Z"/>
      <path class="cls-1" d="m341.25,262.38h26.25v-26.25c-14.5,0-26.25,11.75-26.25,26.25h0Z"/>
      <rect class="cls-1" x="367.5" y="236.13" width="26.25" height="26.25"/>
      <rect class="cls-1" x="420" y="236.13" width="26.25" height="26.25"/>
      <path class="cls-1" d="m577.5,249.26v13.12h-26.25v-13.12c0-7.25,5.88-13.13,13.12-13.13s13.12,5.88,13.12,13.13h0Z"/>
      <path class="cls-1" d="m65.62,262.38c7.25,0,13.12,5.88,13.12,13.12s-5.88,13.12-13.12,13.12-13.12-5.88-13.12-13.12,5.87-13.12,13.12-13.12h0Z"/>
      <path class="cls-1" d="m144.38,262.38h13.12v26.25h-13.12c-7.25,0-13.12-5.88-13.12-13.12s5.87-13.12,13.12-13.12h0Z"/>
      <rect class="cls-1" x="157.5" y="262.38" width="26.25" height="26.25"/>
      <rect class="cls-1" x="183.75" y="262.38" width="26.25" height="26.25"/>
      <rect class="cls-1" x="210" y="262.38" width="26.25" height="26.25"/>
      <rect class="cls-1" x="236.25" y="262.38" width="26.25" height="26.25"/>
      <rect class="cls-1" x="262.5" y="262.38" width="26.25" height="26.25"/>
      <rect class="cls-1" x="288.75" y="262.38" width="26.25" height="26.25"/>
      <rect class="cls-1" x="315" y="262.38" width="26.25" height="26.25"/>
      <rect class="cls-1" x="341.25" y="262.38" width="26.25" height="26.25"/>
      <rect class="cls-1" x="367.5" y="262.38" width="26.25" height="26.25"/>
      <rect class="cls-1" x="393.75" y="262.38" width="26.25" height="26.25"/>
      <rect class="cls-1" x="420" y="262.38" width="26.25" height="26.25"/>
      <rect class="cls-1" x="446.25" y="262.38" width="26.25" height="26.25"/>
      <rect class="cls-1" x="472.5" y="262.38" width="26.25" height="26.25"/>
      <path class="cls-1" d="m511.88,288.63h-13.12v-26.25h13.12c7.25,0,13.12,5.88,13.12,13.12s-5.88,13.12-13.12,13.12h0Z"/>
      <rect class="cls-1" x="551.25" y="262.38" width="26.25" height="26.25"/>
      <path class="cls-1" d="m616.88,262.38c7.25,0,13.12,5.88,13.12,13.12s-5.88,13.12-13.12,13.12-13.12-5.88-13.12-13.12,5.88-13.12,13.12-13.12h0Z"/>
      <path class="cls-1" d="m708.75,275.51v13.12h-26.25v-13.12c0-7.25,5.88-13.12,13.12-13.12s13.12,5.88,13.12,13.12h0Z"/>
      <path class="cls-1" d="m735,288.63h26.25v-26.25c-14.5,0-26.25,11.75-26.25,26.25h0Z"/>
      <rect class="cls-1" x="761.25" y="262.38" width="26.25" height="26.25"/>
      <path class="cls-1" d="m800.62,288.63h-13.12v-26.25h13.12c7.25,0,13.12,5.88,13.12,13.12s-5.88,13.12-13.12,13.12h0Z"/>
      <path class="cls-1" d="m131.25,301.76v13.12h-26.25v-13.12c0-7.25,5.87-13.12,13.12-13.12s13.12,5.88,13.12,13.12h0Z"/>
      <rect class="cls-1" x="157.5" y="288.63" width="26.25" height="26.25"/>
      <rect class="cls-1" x="183.75" y="288.63" width="26.25" height="26.25"/>
      <path class="cls-1" d="m288.75,301.76v-13.12h26.25v13.12c0,7.25-5.88,13.12-13.12,13.12s-13.12-5.88-13.12-13.12h0Z"/>
      <path class="cls-1" d="m367.5,314.88v-26.25h-26.25c0,14.5,11.75,26.25,26.25,26.25h0Z"/>
      <rect class="cls-1" x="367.5" y="288.63" width="26.25" height="26.25"/>
      <rect class="cls-1" x="420" y="288.63" width="26.25" height="26.25"/>
      <path class="cls-1" d="m538.12,288.63h13.12v26.25h-13.12c-7.25,0-13.12-5.88-13.12-13.12s5.88-13.12,13.12-13.12h0Z"/>
      <path class="cls-1" d="m577.5,288.63h-26.25v26.25c14.5,0,26.25-11.75,26.25-26.25h0Z"/>
      <path class="cls-1" d="m656.25,314.88h26.25v-26.25c-14.5,0-26.25,11.75-26.25,26.25h0Z"/>
      <path class="cls-1" d="m708.75,288.63h-26.25v26.25c14.5,0,26.25-11.75,26.25-26.25h0Z"/>
      <rect class="cls-1" x="735" y="288.63" width="26.25" height="26.25"/>
      <path class="cls-1" d="m787.5,288.63h-26.25v26.25c14.5,0,26.25-11.75,26.25-26.25h0Z"/>
      <path class="cls-1" d="m65.62,314.88h13.12v26.25h-13.12c-7.25,0-13.12-5.88-13.12-13.12s5.87-13.12,13.12-13.12h0Z"/>
      <rect class="cls-1" x="78.75" y="314.88" width="26.25" height="26.25"/>
      <rect class="cls-1" x="105" y="314.88" width="26.25" height="26.25"/>
      <rect class="cls-1" x="131.25" y="314.88" width="26.25" height="26.25"/>
      <rect class="cls-1" x="157.5" y="314.88" width="26.25" height="26.25"/>
      <rect class="cls-1" x="183.75" y="314.88" width="26.25" height="26.25"/>
      <rect class="cls-1" x="210" y="314.88" width="26.25" height="26.25"/>
      <rect class="cls-1" x="236.25" y="314.88" width="26.25" height="26.25"/>
      <path class="cls-1" d="m275.62,341.13h-13.12v-26.25h13.12c7.25,0,13.12,5.88,13.12,13.12s-5.88,13.12-13.12,13.12h0Z"/>
      <path class="cls-1" d="m341.25,328.01v13.12h-26.25v-13.12c0-7.25,5.88-13.12,13.12-13.12s13.12,5.88,13.12,13.12h0Z"/>
      <rect class="cls-1" x="367.5" y="314.88" width="26.25" height="26.25"/>
      <rect class="cls-1" x="420" y="314.88" width="26.25" height="26.25"/>
      <path class="cls-1" d="m577.5,341.13h26.25v-26.25c-14.5,0-26.25,11.75-26.25,26.25h0Z"/>
      <path class="cls-1" d="m603.75,314.88v26.25h26.25c0-14.5-11.75-26.25-26.25-26.25h0Z"/>
      <rect class="cls-1" x="656.25" y="314.88" width="26.25" height="26.25"/>
      <path class="cls-1" d="m735,328.01v-13.12h26.25v13.12c0,7.25-5.88,13.12-13.12,13.12s-13.12-5.88-13.12-13.12h0Z"/>
      <path class="cls-1" d="m78.75,354.26v-13.12h26.25v13.12c0,7.25-5.88,13.12-13.12,13.12s-13.12-5.88-13.12-13.12h0Z"/>
      <path class="cls-1" d="m131.25,354.26v-13.12h26.25v13.12c0,7.25-5.88,13.12-13.12,13.12s-13.12-5.88-13.12-13.12h0Z"/>
      <path class="cls-1" d="m183.75,354.26v-13.12h26.25v13.12c0,7.25-5.88,13.12-13.12,13.12s-13.12-5.88-13.12-13.12h0Z"/>
      <path class="cls-1" d="m236.25,354.26v-13.12h26.25v13.12c0,7.25-5.88,13.12-13.12,13.12s-13.13-5.88-13.13-13.12h0Z"/>
      <path class="cls-1" d="m315,354.26v-13.12h26.25v13.12c0,7.25-5.88,13.12-13.12,13.12s-13.12-5.88-13.12-13.12h0Z"/>
      <rect class="cls-1" x="367.5" y="341.13" width="26.25" height="26.25"/>
      <rect class="cls-1" x="420" y="341.13" width="26.25" height="26.25"/>
      <path class="cls-1" d="m459.37,367.38h-13.12v-26.25h13.12c7.25,0,13.12,5.88,13.12,13.12s-5.87,13.12-13.12,13.12h0Z"/>
      <path class="cls-1" d="m511.88,341.13h13.12v26.25h-13.12c-7.25,0-13.12-5.88-13.12-13.12s5.87-13.12,13.12-13.12h0Z"/>
      <rect class="cls-1" x="525" y="341.13" width="26.25" height="26.25"/>
      <rect class="cls-1" x="551.25" y="341.13" width="26.25" height="26.25"/>
      <rect class="cls-1" x="577.5" y="341.13" width="26.25" height="26.25"/>
      <rect class="cls-1" x="603.75" y="341.13" width="26.25" height="26.25"/>
      <rect class="cls-1" x="630" y="341.13" width="26.25" height="26.25"/>
      <rect class="cls-1" x="656.25" y="341.13" width="26.25" height="26.25"/>
      <rect class="cls-1" x="682.5" y="341.13" width="26.25" height="26.25"/>
      <path class="cls-1" d="m721.88,367.38h-13.12v-26.25h13.12c7.25,0,13.12,5.88,13.12,13.12s-5.88,13.12-13.12,13.12h0Z"/>
      <path class="cls-1" d="m813.75,354.26v13.12h-26.25v-13.12c0-7.25,5.88-13.12,13.12-13.12s13.12,5.88,13.12,13.12h0Z"/>
      <path class="cls-1" d="m78.75,380.51v13.12h-26.25v-13.12c0-7.25,5.87-13.12,13.12-13.12s13.12,5.88,13.12,13.12h0Z"/>
      <path class="cls-1" d="m131.25,380.51v13.12h-26.25v-13.12c0-7.25,5.87-13.12,13.12-13.12s13.12,5.88,13.12,13.12h0Z"/>
      <path class="cls-1" d="m170.62,367.38c7.25,0,13.12,5.88,13.12,13.12s-5.88,13.12-13.12,13.12-13.12-5.88-13.12-13.12,5.87-13.12,13.12-13.12h0Z"/>
      <path class="cls-1" d="m223.12,367.38c7.25,0,13.12,5.88,13.12,13.12s-5.88,13.12-13.12,13.12-13.12-5.88-13.12-13.12,5.88-13.12,13.12-13.12h0Z"/>
      <path class="cls-1" d="m341.25,393.63h26.25v-26.25c-14.5,0-26.25,11.75-26.25,26.25h0Z"/>
      <rect class="cls-1" x="367.5" y="367.38" width="26.25" height="26.25"/>
      <rect class="cls-1" x="393.75" y="367.38" width="26.25" height="26.25"/>
      <path class="cls-1" d="m446.25,367.38h-26.25v26.25c14.5,0,26.25-11.75,26.25-26.25h0Z"/>
      <path class="cls-1" d="m603.75,393.63v-26.25h-26.25c0,14.5,11.75,26.25,26.25,26.25h0Z"/>
      <rect class="cls-1" x="603.75" y="367.38" width="26.25" height="26.25"/>
      <rect class="cls-1" x="630" y="367.38" width="26.25" height="26.25"/>
      <rect class="cls-1" x="787.5" y="367.38" width="26.25" height="26.25"/>
      <path class="cls-1" d="m52.5,406.76v-13.12h26.25v13.12c0,7.25-5.88,13.12-13.12,13.12s-13.12-5.88-13.12-13.12h0Z"/>
      <path class="cls-1" d="m131.25,419.88v-26.25h-26.25c0,14.5,11.75,26.25,26.25,26.25h0Z"/>
      <path class="cls-1" d="m144.38,419.88h-13.12v-26.25h13.12c7.25,0,13.12,5.88,13.12,13.12s-5.88,13.12-13.12,13.12h0Z"/>
      <path class="cls-1" d="m275.62,393.63c7.25,0,13.12,5.88,13.12,13.12s-5.88,13.12-13.12,13.12-13.12-5.88-13.12-13.12,5.88-13.12,13.12-13.12h0Z"/>
      <path class="cls-1" d="m328.12,393.63h13.12v26.25h-13.12c-7.25,0-13.12-5.88-13.12-13.12s5.88-13.12,13.12-13.12h0Z"/>
      <path class="cls-1" d="m367.5,393.63h-26.25v26.25c14.5,0,26.25-11.75,26.25-26.25h0Z"/>
      <path class="cls-1" d="m511.88,393.63c7.25,0,13.12,5.88,13.12,13.12s-5.88,13.12-13.12,13.12-13.12-5.88-13.12-13.12,5.87-13.12,13.12-13.12h0Z"/>
      <path class="cls-1" d="m656.25,419.88v-26.25h-26.25c0,14.5,11.75,26.25,26.25,26.25h0Z"/>
      <rect class="cls-1" x="656.25" y="393.63" width="26.25" height="26.25"/>
      <rect class="cls-1" x="682.5" y="393.63" width="26.25" height="26.25"/>
      <rect class="cls-1" x="708.75" y="393.63" width="26.25" height="26.25"/>
      <rect class="cls-1" x="735" y="393.63" width="26.25" height="26.25"/>
      <rect class="cls-1" x="761.25" y="393.63" width="26.25" height="26.25"/>
      <rect class="cls-1" x="787.5" y="393.63" width="26.25" height="26.25"/>
      <path class="cls-1" d="m223.12,419.88c7.25,0,13.12,5.88,13.12,13.12s-5.88,13.12-13.12,13.12-13.12-5.88-13.12-13.12,5.88-13.12,13.12-13.12h0Z"/>
      <path class="cls-1" d="m301.88,419.88c7.25,0,13.12,5.88,13.12,13.12s-5.88,13.12-13.12,13.12-13.12-5.88-13.12-13.12,5.88-13.12,13.12-13.12h0Z"/>
      <path class="cls-1" d="m393.75,433.01v13.12h-26.25v-13.12c0-7.25,5.88-13.12,13.12-13.12s13.12,5.88,13.12,13.12h0Z"/>
      <path class="cls-1" d="m420,446.13h26.25v-26.25c-14.5,0-26.25,11.75-26.25,26.25h0Z"/>
      <path class="cls-1" d="m459.37,446.13h-13.12v-26.25h13.12c7.25,0,13.12,5.88,13.12,13.12s-5.87,13.12-13.12,13.12h0Z"/>
      <path class="cls-1" d="m538.12,419.88h13.12v26.25h-13.12c-7.25,0-13.12-5.88-13.12-13.12s5.88-13.12,13.12-13.12h0Z"/>
      <path class="cls-1" d="m551.25,419.88v26.25h26.25c0-14.5-11.75-26.25-26.25-26.25h0Z"/>
      <path class="cls-1" d="m682.5,446.13v-26.25h-26.25c0,14.5,11.75,26.25,26.25,26.25h0Z"/>
      <rect class="cls-1" x="682.5" y="419.88" width="26.25" height="26.25"/>
      <rect class="cls-1" x="735" y="419.88" width="26.25" height="26.25"/>
      <rect class="cls-1" x="787.5" y="419.88" width="26.25" height="26.25"/>
      <path class="cls-1" d="m144.38,446.13c7.25,0,13.12,5.88,13.12,13.12s-5.88,13.12-13.12,13.12-13.12-5.88-13.12-13.12,5.87-13.12,13.12-13.12h0Z"/>
      <path class="cls-1" d="m262.5,459.26v13.12h-26.25v-13.12c0-7.25,5.88-13.12,13.13-13.12s13.12,5.88,13.12,13.12h0Z"/>
      <path class="cls-1" d="m328.12,446.13c7.25,0,13.12,5.88,13.12,13.12s-5.88,13.12-13.12,13.12-13.12-5.88-13.12-13.12,5.88-13.12,13.12-13.12h0Z"/>
      <path class="cls-1" d="m393.75,472.38v-26.25h-26.25c0,14.5,11.75,26.25,26.25,26.25h0Z"/>
      <rect class="cls-1" x="393.75" y="446.13" width="26.25" height="26.25"/>
      <path class="cls-1" d="m446.25,446.13h-26.25v26.25c14.5,0,26.25-11.75,26.25-26.25h0Z"/>
      <path class="cls-1" d="m485.62,446.13c7.25,0,13.13,5.88,13.13,13.12s-5.88,13.12-13.13,13.12-13.12-5.88-13.12-13.12,5.88-13.12,13.12-13.12h0Z"/>
      <rect class="cls-1" x="551.25" y="446.13" width="26.25" height="26.25"/>
      <path class="cls-1" d="m616.88,446.13h13.12v26.25h-13.12c-7.25,0-13.12-5.88-13.12-13.12s5.88-13.12,13.12-13.12h0Z"/>
      <path class="cls-1" d="m643.12,472.38h-13.12v-26.25h13.12c7.25,0,13.12,5.88,13.12,13.12s-5.88,13.12-13.12,13.12h0Z"/>
      <path class="cls-1" d="m682.5,459.26v-13.12h26.25v13.12c0,7.25-5.88,13.12-13.12,13.12s-13.12-5.88-13.12-13.12h0Z"/>
      <path class="cls-1" d="m735,459.26v-13.12h26.25v13.12c0,7.25-5.88,13.12-13.12,13.12s-13.12-5.88-13.12-13.12h0Z"/>
      <path class="cls-1" d="m787.5,459.26v-13.12h26.25v13.12c0,7.25-5.88,13.12-13.12,13.12s-13.12-5.88-13.12-13.12h0Z"/>
      <path class="cls-1" d="m105,485.51v13.13h-26.25v-13.13c0-7.25,5.87-13.12,13.12-13.12s13.12,5.88,13.12,13.12h0Z"/>
      <path class="cls-1" d="m196.87,472.38h13.12v26.25h-13.12c-7.25,0-13.12-5.88-13.12-13.13s5.87-13.12,13.12-13.12h0Z"/>
      <rect class="cls-1" x="210" y="472.38" width="26.25" height="26.25"/>
      <rect class="cls-1" x="236.25" y="472.38" width="26.25" height="26.25"/>
      <path class="cls-1" d="m367.5,485.51v13.13h-26.25v-13.13c0-7.25,5.88-13.12,13.12-13.12s13.12,5.88,13.12,13.12h0Z"/>
      <path class="cls-1" d="m459.37,472.38c7.25,0,13.12,5.88,13.12,13.12s-5.87,13.13-13.12,13.13-13.12-5.88-13.12-13.13,5.88-13.12,13.12-13.12h0Z"/>
      <path class="cls-1" d="m525,498.63h26.25v-26.25c-14.5,0-26.25,11.75-26.25,26.25h0Z"/>
      <rect class="cls-1" x="551.25" y="472.38" width="26.25" height="26.25"/>
      <path class="cls-1" d="m590.62,498.63h-13.12v-26.25h13.12c7.25,0,13.12,5.88,13.12,13.12s-5.88,13.13-13.12,13.13h0Z"/>
      <path class="cls-1" d="m669.38,472.38c7.25,0,13.12,5.88,13.12,13.12s-5.88,13.13-13.12,13.13-13.12-5.88-13.12-13.13,5.88-13.12,13.12-13.12h0Z"/>
      <path class="cls-1" d="m721.88,472.38c7.25,0,13.12,5.88,13.12,13.12s-5.88,13.13-13.12,13.13-13.12-5.88-13.12-13.13,5.88-13.12,13.12-13.12h0Z"/>
      <path class="cls-1" d="m52.5,524.88h26.25v-26.25c-14.5,0-26.25,11.75-26.25,26.25h0Z"/>
      <rect class="cls-1" x="78.75" y="498.63" width="26.25" height="26.25"/>
      <rect class="cls-1" x="236.25" y="498.63" width="26.25" height="26.25"/>
      <path class="cls-1" d="m301.88,498.63c7.25,0,13.12,5.87,13.12,13.12s-5.88,13.12-13.12,13.12-13.12-5.88-13.12-13.12,5.88-13.12,13.12-13.12h0Z"/>
      <rect class="cls-1" x="341.25" y="498.63" width="26.25" height="26.25"/>
      <path class="cls-1" d="m380.62,524.88h-13.12v-26.25h13.12c7.25,0,13.12,5.87,13.12,13.12s-5.88,13.12-13.12,13.12h0Z"/>
      <path class="cls-1" d="m551.25,524.88v-26.25h-26.25c0,14.5,11.75,26.25,26.25,26.25h0Z"/>
      <rect class="cls-1" x="551.25" y="498.63" width="26.25" height="26.25"/>
      <path class="cls-1" d="m695.62,498.63c7.25,0,13.12,5.87,13.12,13.12s-5.88,13.12-13.12,13.12-13.12-5.88-13.12-13.12,5.88-13.12,13.12-13.12h0Z"/>
      <path class="cls-1" d="m748.12,498.63h13.12v26.25h-13.12c-7.25,0-13.12-5.88-13.12-13.12s5.88-13.12,13.12-13.12h0Z"/>
      <path class="cls-1" d="m774.38,524.88h-13.12v-26.25h13.12c7.25,0,13.12,5.87,13.12,13.12s-5.88,13.12-13.12,13.12h0Z"/>
      <rect class="cls-1" x="52.5" y="524.88" width="26.25" height="26.25"/>
      <rect class="cls-1" x="78.75" y="524.88" width="26.25" height="26.25"/>
      <rect class="cls-1" x="105" y="524.88" width="26.25" height="26.25"/>
      <path class="cls-1" d="m144.38,551.13h-13.12v-26.25h13.12c7.25,0,13.12,5.87,13.12,13.12s-5.88,13.12-13.12,13.12h0Z"/>
      <path class="cls-1" d="m183.75,551.13h26.25v-26.25c-14.5,0-26.25,11.75-26.25,26.25h0Z"/>
      <rect class="cls-1" x="210" y="524.88" width="26.25" height="26.25"/>
      <rect class="cls-1" x="236.25" y="524.88" width="26.25" height="26.25"/>
      <path class="cls-1" d="m315,551.13h26.25v-26.25c-14.5,0-26.25,11.75-26.25,26.25h0Z"/>
      <rect class="cls-1" x="341.25" y="524.88" width="26.25" height="26.25"/>
      <path class="cls-1" d="m393.75,551.13h26.25v-26.25c-14.5,0-26.25,11.75-26.25,26.25h0Z"/>
      <path class="cls-1" d="m433.12,551.13h-13.12v-26.25h13.12c7.25,0,13.12,5.87,13.12,13.12s-5.88,13.12-13.12,13.12h0Z"/>
      <path class="cls-1" d="m498.75,538.01v13.12h-26.25v-13.12c0-7.25,5.88-13.12,13.12-13.12s13.13,5.87,13.13,13.12h0Z"/>
      <rect class="cls-1" x="551.25" y="524.88" width="26.25" height="26.25"/>
      <path class="cls-1" d="m630,551.13h26.25v-26.25c-14.5,0-26.25,11.75-26.25,26.25h0Z"/>
      <path class="cls-1" d="m656.25,524.88v26.25h26.25c0-14.5-11.75-26.25-26.25-26.25h0Z"/>
      <path class="cls-1" d="m735,538.01v13.12h-26.25v-13.12c0-7.25,5.88-13.12,13.12-13.12s13.12,5.87,13.12,13.12h0Z"/>
      <path class="cls-1" d="m800.62,524.88c7.25,0,13.12,5.87,13.12,13.12s-5.88,13.12-13.12,13.12-13.12-5.88-13.12-13.12,5.88-13.12,13.12-13.12h0Z"/>
      <rect class="cls-1" x="52.5" y="551.13" width="26.25" height="26.25"/>
      <rect class="cls-1" x="78.75" y="551.13" width="26.25" height="26.25"/>
      <path class="cls-1" d="m183.75,564.26v-13.12h26.25v13.12c0,7.25-5.88,13.12-13.12,13.12s-13.12-5.88-13.12-13.12h0Z"/>
      <path class="cls-1" d="m236.25,564.26v-13.12h26.25v13.12c0,7.25-5.88,13.12-13.12,13.12s-13.13-5.88-13.13-13.12h0Z"/>
      <path class="cls-1" d="m301.88,551.13h13.12v26.25h-13.12c-7.25,0-13.12-5.88-13.12-13.12s5.88-13.12,13.12-13.12h0Z"/>
      <rect class="cls-1" x="315" y="551.13" width="26.25" height="26.25"/>
      <rect class="cls-1" x="341.25" y="551.13" width="26.25" height="26.25"/>
      <rect class="cls-1" x="367.5" y="551.13" width="26.25" height="26.25"/>
      <rect class="cls-1" x="393.75" y="551.13" width="26.25" height="26.25"/>
      <path class="cls-1" d="m459.37,551.13h13.12v26.25h-13.12c-7.25,0-13.12-5.88-13.12-13.12s5.88-13.12,13.12-13.12h0Z"/>
      <rect class="cls-1" x="472.5" y="551.13" width="26.25" height="26.25"/>
      <path class="cls-1" d="m538.12,551.13h13.12v26.25h-13.12c-7.25,0-13.12-5.88-13.12-13.12s5.88-13.12,13.12-13.12h0Z"/>
      <path class="cls-1" d="m577.5,551.13h-26.25v26.25c14.5,0,26.25-11.75,26.25-26.25h0Z"/>
      <path class="cls-1" d="m603.75,577.38h26.25v-26.25c-14.5,0-26.25,11.75-26.25,26.25h0Z"/>
      <rect class="cls-1" x="630" y="551.13" width="26.25" height="26.25"/>
      <rect class="cls-1" x="656.25" y="551.13" width="26.25" height="26.25"/>
      <rect class="cls-1" x="708.75" y="551.13" width="26.25" height="26.25"/>
      <path class="cls-1" d="m735,551.13v26.25h26.25c0-14.5-11.75-26.25-26.25-26.25h0Z"/>
      <path class="cls-1" d="m78.75,603.63v-26.25h-26.25c0,14.5,11.75,26.25,26.25,26.25h0Z"/>
      <path class="cls-1" d="m105,577.38h-26.25v26.25c14.5,0,26.25-11.75,26.25-26.25h0Z"/>
      <path class="cls-1" d="m144.38,577.38h13.12v26.25h-13.12c-7.25,0-13.12-5.88-13.12-13.12s5.87-13.12,13.12-13.12h0Z"/>
      <path class="cls-1" d="m170.62,603.63h-13.12v-26.25h13.12c7.25,0,13.12,5.87,13.12,13.12s-5.88,13.12-13.12,13.12h0Z"/>
      <path class="cls-1" d="m223.12,577.38c7.25,0,13.12,5.87,13.12,13.12s-5.88,13.12-13.12,13.12-13.12-5.88-13.12-13.12,5.88-13.12,13.12-13.12h0Z"/>
      <path class="cls-1" d="m288.75,590.51v13.12h-26.25v-13.12c0-7.25,5.88-13.12,13.12-13.12s13.12,5.87,13.12,13.12h0Z"/>
      <path class="cls-1" d="m341.25,590.51v-13.12h26.25v13.12c0,7.25-5.88,13.12-13.12,13.12s-13.12-5.88-13.12-13.12h0Z"/>
      <rect class="cls-1" x="393.75" y="577.38" width="26.25" height="26.25"/>
      <rect class="cls-1" x="472.5" y="577.38" width="26.25" height="26.25"/>
      <path class="cls-1" d="m511.88,603.63h-13.12v-26.25h13.12c7.25,0,13.12,5.87,13.12,13.12s-5.88,13.12-13.12,13.12h0Z"/>
      <path class="cls-1" d="m577.5,603.63h26.25v-26.25c-14.5,0-26.25,11.75-26.25,26.25h0Z"/>
      <rect class="cls-1" x="603.75" y="577.38" width="26.25" height="26.25"/>
      <rect class="cls-1" x="630" y="577.38" width="26.25" height="26.25"/>
      <rect class="cls-1" x="656.25" y="577.38" width="26.25" height="26.25"/>
      <rect class="cls-1" x="682.5" y="577.38" width="26.25" height="26.25"/>
      <rect class="cls-1" x="708.75" y="577.38" width="26.25" height="26.25"/>
      <rect class="cls-1" x="735" y="577.38" width="26.25" height="26.25"/>
      <path class="cls-1" d="m774.38,603.63h-13.12v-26.25h13.12c7.25,0,13.12,5.87,13.12,13.12s-5.88,13.12-13.12,13.12h0Z"/>
      <rect class="cls-1" x="262.5" y="603.63" width="26.25" height="26.25"/>
      <path class="cls-1" d="m341.25,616.76v13.12h-26.25v-13.12c0-7.25,5.88-13.12,13.12-13.12s13.12,5.87,13.12,13.12h0Z"/>
      <path class="cls-1" d="m380.62,603.63h13.12v26.25h-13.12c-7.25,0-13.12-5.88-13.12-13.12s5.88-13.12,13.12-13.12h0Z"/>
      <rect class="cls-1" x="393.75" y="603.63" width="26.25" height="26.25"/>
      <rect class="cls-1" x="472.5" y="603.63" width="26.25" height="26.25"/>
      <path class="cls-1" d="m551.25,616.76v13.12h-26.25v-13.12c0-7.25,5.88-13.12,13.12-13.12s13.12,5.87,13.12,13.12h0Z"/>
      <rect class="cls-1" x="577.5" y="603.63" width="26.25" height="26.25"/>
      <rect class="cls-1" x="682.5" y="603.63" width="26.25" height="26.25"/>
      <rect class="cls-1" x="708.75" y="603.63" width="26.25" height="26.25"/>
      <rect class="cls-1" x="262.5" y="629.88" width="26.25" height="26.25"/>
      <rect class="cls-1" x="315" y="629.88" width="26.25" height="26.25"/>
      <rect class="cls-1" x="393.75" y="629.88" width="26.25" height="26.25"/>
      <path class="cls-1" d="m446.25,656.13h26.25v-26.25c-14.5,0-26.25,11.75-26.25,26.25h0Z"/>
      <rect class="cls-1" x="472.5" y="629.88" width="26.25" height="26.25"/>
      <rect class="cls-1" x="498.75" y="629.88" width="26.25" height="26.25"/>
      <rect class="cls-1" x="525" y="629.88" width="26.25" height="26.25"/>
      <rect class="cls-1" x="551.25" y="629.88" width="26.25" height="26.25"/>
      <rect class="cls-1" x="577.5" y="629.88" width="26.25" height="26.25"/>
      <path class="cls-1" d="m643.12,629.88c7.25,0,13.12,5.87,13.12,13.12s-5.88,13.12-13.12,13.12-13.12-5.88-13.12-13.12,5.88-13.12,13.12-13.12h0Z"/>
      <rect class="cls-1" x="682.5" y="629.88" width="26.25" height="26.25"/>
      <path class="cls-1" d="m735,629.88h-26.25v26.25c14.5,0,26.25-11.75,26.25-26.25h0Z"/>
      <rect class="cls-1" x="262.5" y="656.13" width="26.25" height="26.25"/>
      <rect class="cls-1" x="288.75" y="656.13" width="26.25" height="26.25"/>
      <rect class="cls-1" x="315" y="656.13" width="26.25" height="26.25"/>
      <path class="cls-1" d="m380.62,656.13h13.12v26.25h-13.12c-7.25,0-13.12-5.88-13.12-13.12s5.88-13.12,13.12-13.12h0Z"/>
      <rect class="cls-1" x="393.75" y="656.13" width="26.25" height="26.25"/>
      <path class="cls-1" d="m446.25,669.26v-13.12h26.25v13.12c0,7.25-5.87,13.12-13.12,13.12s-13.12-5.88-13.12-13.12h0Z"/>
      <path class="cls-1" d="m498.75,669.26v-13.12h26.25v13.12c0,7.25-5.88,13.12-13.12,13.12s-13.12-5.88-13.12-13.12h0Z"/>
      <rect class="cls-1" x="551.25" y="656.13" width="26.25" height="26.25"/>
      <rect class="cls-1" x="577.5" y="656.13" width="26.25" height="26.25"/>
      <rect class="cls-1" x="682.5" y="656.13" width="26.25" height="26.25"/>
      <path class="cls-1" d="m774.38,656.13c7.25,0,13.12,5.87,13.12,13.12s-5.88,13.12-13.12,13.12-13.12-5.88-13.12-13.12,5.88-13.12,13.12-13.12h0Z"/>
      <rect class="cls-1" x="262.5" y="682.38" width="26.25" height="26.25"/>
      <rect class="cls-1" x="315" y="682.38" width="26.25" height="26.25"/>
      <path class="cls-1" d="m393.75,695.51v-13.12h26.25v13.12c0,7.25-5.88,13.12-13.12,13.12s-13.12-5.88-13.12-13.12h0Z"/>
      <path class="cls-1" d="m485.62,682.38c7.25,0,13.13,5.87,13.13,13.12s-5.88,13.12-13.13,13.12-13.12-5.88-13.12-13.12,5.88-13.12,13.12-13.12h0Z"/>
      <path class="cls-1" d="m577.5,708.63v-26.25h-26.25c0,14.5,11.75,26.25,26.25,26.25h0Z"/>
      <rect class="cls-1" x="577.5" y="682.38" width="26.25" height="26.25"/>
      <rect class="cls-1" x="603.75" y="682.38" width="26.25" height="26.25"/>
      <rect class="cls-1" x="630" y="682.38" width="26.25" height="26.25"/>
      <rect class="cls-1" x="656.25" y="682.38" width="26.25" height="26.25"/>
      <rect class="cls-1" x="682.5" y="682.38" width="26.25" height="26.25"/>
      <path class="cls-1" d="m721.88,708.63h-13.12v-26.25h13.12c7.25,0,13.12,5.87,13.12,13.12s-5.88,13.12-13.12,13.12h0Z"/>
      <path class="cls-1" d="m262.5,721.76v-13.12h26.25v13.12c0,7.25-5.88,13.12-13.12,13.12s-13.12-5.88-13.12-13.12h0Z"/>
      <rect class="cls-1" x="315" y="708.63" width="26.25" height="26.25"/>
      <rect class="cls-1" x="341.25" y="708.63" width="26.25" height="26.25"/>
      <path class="cls-1" d="m367.5,708.63v26.25h26.25c0-14.5-11.75-26.25-26.25-26.25h0Z"/>
      <path class="cls-1" d="m420,734.88h26.25v-26.25c-14.5,0-26.25,11.75-26.25,26.25h0Z"/>
      <path class="cls-1" d="m446.25,708.63v26.25h26.25c0-14.5-11.75-26.25-26.25-26.25h0Z"/>
      <path class="cls-1" d="m603.75,721.76v-13.12h26.25v13.12c0,7.25-5.88,13.12-13.12,13.12s-13.12-5.88-13.12-13.12h0Z"/>
      <path class="cls-1" d="m787.5,721.76v13.12h-26.25v-13.12c0-7.25,5.88-13.12,13.12-13.12s13.12,5.87,13.12,13.12h0Z"/>
      <path class="cls-1" d="m315,748.01v-13.12h26.25v13.12c0,7.25-5.88,13.12-13.12,13.12s-13.12-5.88-13.12-13.12h0Z"/>
      <rect class="cls-1" x="367.5" y="734.88" width="26.25" height="26.25"/>
      <path class="cls-1" d="m446.25,761.13v-26.25h-26.25c0,14.5,11.75,26.25,26.25,26.25h0Z"/>
      <rect class="cls-1" x="446.25" y="734.88" width="26.25" height="26.25"/>
      <path class="cls-1" d="m472.5,734.88v26.25h26.25c0-14.5-11.75-26.25-26.25-26.25h0Z"/>
      <path class="cls-1" d="m551.25,748.01v13.12h-26.25v-13.12c0-7.25,5.88-13.12,13.12-13.12s13.12,5.87,13.12,13.12h0Z"/>
      <path class="cls-1" d="m656.25,761.13h26.25v-26.25c-14.5,0-26.25,11.75-26.25,26.25h0Z"/>
      <path class="cls-1" d="m682.5,734.88v26.25h26.25c0-14.5-11.75-26.25-26.25-26.25h0Z"/>
      <path class="cls-1" d="m735,761.13h26.25v-26.25c-14.5,0-26.25,11.75-26.25,26.25h0Z"/>
      <rect class="cls-1" x="761.25" y="734.88" width="26.25" height="26.25"/>
      <path class="cls-1" d="m787.5,734.88v26.25h26.25c0-14.5-11.75-26.25-26.25-26.25h0Z"/>
      <path class="cls-1" d="m315,774.26v13.12h-26.25v-13.12c0-7.25,5.88-13.12,13.12-13.12s13.12,5.87,13.12,13.12h0Z"/>
      <path class="cls-1" d="m341.25,787.38h26.25v-26.25c-14.5,0-26.25,11.75-26.25,26.25h0Z"/>
      <path class="cls-1" d="m393.75,761.13h-26.25v26.25c14.5,0,26.25-11.75,26.25-26.25h0Z"/>
      <rect class="cls-1" x="472.5" y="761.13" width="26.25" height="26.25"/>
      <path class="cls-1" d="m551.25,787.38v-26.25h-26.25c0,14.5,11.75,26.25,26.25,26.25h0Z"/>
      <path class="cls-1" d="m551.25,761.13v26.25h26.25c0-14.5-11.75-26.25-26.25-26.25h0Z"/>
      <path class="cls-1" d="m630,787.38h26.25v-26.25c-14.5,0-26.25,11.75-26.25,26.25h0Z"/>
      <rect class="cls-1" x="656.25" y="761.13" width="26.25" height="26.25"/>
      <rect class="cls-1" x="682.5" y="761.13" width="26.25" height="26.25"/>
      <rect class="cls-1" x="708.75" y="761.13" width="26.25" height="26.25"/>
      <path class="cls-1" d="m761.25,761.13h-26.25v26.25c14.5,0,26.25-11.75,26.25-26.25h0Z"/>
      <path class="cls-1" d="m787.5,774.26v-13.12h26.25v13.12c0,7.25-5.88,13.12-13.12,13.12s-13.12-5.87-13.12-13.12h0Z"/>
      <path class="cls-1" d="m275.62,787.38h13.12v26.25h-13.12c-7.25,0-13.12-5.88-13.12-13.12s5.88-13.12,13.12-13.12h0Z"/>
      <path class="cls-1" d="m315,787.38h-26.25v26.25c14.5,0,26.25-11.75,26.25-26.25h0Z"/>
      <path class="cls-1" d="m341.25,800.51v-13.12h26.25v13.12c0,7.25-5.88,13.12-13.12,13.12s-13.12-5.87-13.12-13.12h0Z"/>
      <path class="cls-1" d="m406.87,787.38c7.25,0,13.12,5.88,13.12,13.12s-5.88,13.12-13.12,13.12-13.12-5.87-13.12-13.12,5.88-13.12,13.12-13.12h0Z"/>
      <path class="cls-1" d="m459.37,787.38h13.12v26.25h-13.12c-7.25,0-13.12-5.88-13.12-13.12s5.88-13.12,13.12-13.12h0Z"/>
      <path class="cls-1" d="m498.75,787.38h-26.25v26.25c14.5,0,26.25-11.75,26.25-26.25h0Z"/>
      <path class="cls-1" d="m577.5,813.63v-26.25h-26.25c0,14.5,11.75,26.25,26.25,26.25h0Z"/>
      <rect class="cls-1" x="577.5" y="787.38" width="26.25" height="26.25"/>
      <rect class="cls-1" x="603.75" y="787.38" width="26.25" height="26.25"/>
      <rect class="cls-1" x="630" y="787.38" width="26.25" height="26.25"/>
      <path class="cls-1" d="m682.5,787.38h-26.25v26.25c14.5,0,26.25-11.75,26.25-26.25h0Z"/>
      <path class="cls-1" d="m173.52,52.4h-58.28c-28.41,0-52.47,18.76-60.16,44.41-.8,2.66-1.42,5.38-1.85,8.17-.47,3.08-.72,6.23-.72,9.43v59.66c0,34.21,28.15,62.03,62.73,62.03h29.14s29.14,0,29.14,0c34.58,0,62.73-27.82,62.73-62.03v-59.66c0-34.19-28.15-62.01-62.73-62.01h0Zm35.17,121.68c0,19.01-15.78,34.47-35.18,34.47h-29.13s-29.13,0-29.13,0c-19.4,0-35.18-15.47-35.18-34.47v-59.66c0-5.94,1.54-11.53,4.25-16.41,2.61-4.7,6.3-8.74,10.75-11.8,5.71-3.93,12.67-6.24,20.17-6.24h58.29c19.39,0,35.17,15.45,35.17,34.45v59.66Z"/>
      <path class="cls-1" d="m751.02,52.4h-58.28c-28.41,0-52.47,18.76-60.16,44.41-.8,2.66-1.42,5.38-1.85,8.17-.47,3.08-.72,6.23-.72,9.43v59.66c0,34.21,28.15,62.03,62.73,62.03h29.14s29.14,0,29.14,0c34.58,0,62.73-27.82,62.73-62.03v-59.66c0-34.19-28.15-62.01-62.73-62.01h0Zm35.17,121.68c0,19.01-15.78,34.47-35.18,34.47h-29.13s-29.13,0-29.13,0c-19.4,0-35.18-15.47-35.18-34.47v-59.66c0-5.94,1.54-11.53,4.25-16.41,2.61-4.7,6.3-8.74,10.75-11.8,5.71-3.93,12.67-6.24,20.17-6.24h58.29c19.39,0,35.17,15.45,35.17,34.45v59.66Z"/>
      <path class="cls-1" d="m173.52,629.9h-58.28c-28.41,0-52.47,18.76-60.16,44.41-.8,2.66-1.42,5.38-1.85,8.17-.47,3.08-.72,6.23-.72,9.43v59.66c0,34.21,28.15,62.03,62.73,62.03h29.14s29.14,0,29.14,0c34.58,0,62.73-27.82,62.73-62.03v-59.66c0-34.2-28.15-62.01-62.73-62.01h0Zm35.17,121.68c0,19.01-15.78,34.47-35.18,34.47h-29.13s-29.13,0-29.13,0c-19.4,0-35.18-15.46-35.18-34.47v-59.66c0-5.94,1.54-11.53,4.25-16.41,2.61-4.7,6.3-8.74,10.75-11.8,5.71-3.93,12.67-6.24,20.17-6.24h58.29c19.39,0,35.17,15.45,35.17,34.45v59.66Z"/>
      <path class="cls-1" d="m126.54,183.63c-11.88,0-21.55-9.48-21.55-21.11v-36.54c0-3.64.95-7.06,2.6-10.05,1.6-2.88,3.86-5.36,6.58-7.22,3.5-2.41,7.77-3.83,12.35-3.83h35.7c11.87,0,21.54,9.47,21.54,21.1v36.54c0,11.64-9.67,21.11-21.54,21.11h-35.68Z"/>
      <path class="cls-1" d="m704.04,183.63c-11.88,0-21.55-9.48-21.55-21.11v-36.54c0-3.64.95-7.06,2.6-10.05,1.6-2.88,3.86-5.36,6.58-7.22,3.5-2.41,7.77-3.83,12.35-3.83h35.7c11.87,0,21.54,9.47,21.54,21.1v36.54c0,11.64-9.67,21.11-21.54,21.11h-35.68Z"/>
      <path class="cls-1" d="m126.54,761.13c-11.88,0-21.55-9.48-21.55-21.11v-36.54c0-3.64.95-7.06,2.6-10.05,1.6-2.88,3.86-5.36,6.58-7.22,3.5-2.41,7.77-3.83,12.35-3.83h35.7c11.87,0,21.54,9.46,21.54,21.1v36.54c0,11.64-9.67,21.11-21.54,21.11h-35.68Z"/>
    </g>
  </g>
</svg>