<?xml version="1.0" encoding="UTF-8"?>
<svg id="Layer_2" data-name="Layer 2" xmlns="http://www.w3.org/2000/svg" viewBox="0 0 266.25 794.86">
  <defs>
    <style>
      .cls-1 {
        stroke-width: 0px;
      }
    </style>
  </defs>
  <g id="Layer_1-2" data-name="Layer 1">
    <g>
      <path class="cls-1" d="m173.34,408.9c6.92,2.63,12.33,7.52,17.6,12.37,24.96,22.99,46.71,48.65,63.75,78.13,5.74,9.94,9.26,20.62,11.25,31.89,1.1,6.24-.97,11.74-3.68,17.05-11.6,22.76-25.32,44.25-39.71,65.31-30.43,44.54-63.26,87.16-102.5,124.42-19.24,18.27-39.1,35.94-62.06,49.55-12.58,7.46-25.99,10.66-39.44,2.23-14.38-9-19.44-23.32-18.44-39.25,2.01-31.86,5.3-63.65,11.3-95.02,8.47-44.26,15.68-88.7,20.41-133.52,1.08-10.23,1.34-20.55,1.95-30.83.18-3.09.16-6.19.43-9.26.17-1.98.03-4.89,2.55-4.98,2.81-.09,2.3,2.85,2.45,4.8.12,1.54.05,3.09,0,4.64-1.08,40.79-7.36,80.93-14.56,121-8.43,46.86-16.88,93.75-19.72,141.4-.43,7.26-.1,14.4,3.12,21.16,8.62,18.1,25.82,24.38,43.83,15.38,14.85-7.43,27.4-18.27,40-28.87,43.89-36.88,80.63-80.23,113.41-127.01,15.22-21.72,28.92-44.51,44.35-66.07,14.47-20.23,12.41-39.57.67-59.77-17.63-30.35-39.98-56.78-65.49-80.71-4.39-4.12-10.06-7.47-11.42-14.14l-.06.11Z"/>
      <path class="cls-1" d="m173.41,408.79c-5.7,12.07-3.53,21.08,7.96,29.41,13.95,10.11,26.11,22.49,31.27,40.84-3.73-1.14-4.77-4.14-6.03-6.53-8.19-15.54-22.43-25.29-34.83-36.81-3.05-2.84-4.57-2.01-5.66,1.97-1.86,6.79-2.07,12.98,2.65,18.92,10.13,12.77,17.38,26.81,21.94,42.76,3.3,11.55,8.05,23.51,19.54,30.5,2.82,1.72,1.67,4.49,1.18,7.01-2.56,13.19-10.18,23.57-18.97,33.09-16.95,18.34-34.15,36.45-51.42,54.49-7.14,7.47-13.5,15.55-19.83,23.68-3.2,4.11-5.35,8.66-6.43,13.86-2.4,11.59-5.13,23.11-7.8,34.64-1.11,4.78-2.49,9.5-5.62,13.43-1.26,1.58-2.65,3.65-5,2.76-2.4-.91-1.98-3.43-1.79-5.41.89-9.27,2.25-18.71,6.27-26.98,14.96-30.82,18.54-64.62,26.29-97.29,13.2-55.59,25-111.51,38.64-166.98,5.82-23.68-.68-41.02-19.19-55.71-7.91-6.28-16.23-12.46-23.2-21.4,4.78-.84,6.74,1.95,8.82,3.75,8.17,7.08,15.94,14.64,24.21,21.59,14.01,11.77,20.18,26.3,16.92,44.53,0,0,.06-.11.06-.11Zm-54.04,233.63c10.26-11.38,20.67-21.68,30.74-32.32,18.4-19.42,36.99-38.73,51.98-61.06,3.43-5.11,7.11-10.6,1.81-16.57-10.63-12-18.58-25.74-21.69-41.25-2.73-13.61-13.7-21.18-20.51-32.48-14.12,61.23-28.23,122.45-42.35,183.68Z"/>
      <path class="cls-1" d="m211.38,437.05c-1.35-3.23.23-6.11,1.19-8.8,11-30.6,12.56-61.85,6.73-93.64-.19-1.01-.06-2.26-.61-2.99-9.47-12.6-11.35-28.31-17.43-42.28-1.65-3.78-4.77-5.29-8.7-5.21-8.05.16-15.86-1.61-23.76-2.68-7.24-.98-14.37-.74-21.25,2.19-14.69,6.25-29.46,12.33-44.11,18.69-4.04,1.75-9.93,3.18-7.46,9.49,2.28,5.82,7.77,5.34,12.62,3.68,16.08-5.5,31.96-11.61,48.14-16.79,9.65-3.09,19.46-3.11,28.66,3.23-2.38,3.15-4.72,2.17-6.63,1.21-6.62-3.33-13.06-2.12-19.42.5-14.08,5.8-28.56,10.36-43.25,14.31-3.72,1-8.6,2.17-7.78,6.92.76,4.43,5.58,6.02,9.8,5.9,4.32-.12,8.65-1.15,12.91-2.11,10.3-2.3,20.82-4.03,30.77-7.4,12.05-4.09,23.3,1.58,34.96,1.27,1.83-.05,4.08.89,4.94,4.82-12.01-2.92-23.06,2.29-34.68,1.69-4.59-.24-9.25.27-13.85.74-2.52.26-5.35.74-5.62,4.17-.28,3.59,1.49,6.03,4.89,6.9,2.71.69,5.56,1.17,8.35,1.2,7.47.08,14.94-.18,22.42-.21,16.2-.06,21.42,6.6,17.63,22.45-.35,1.46-.94,2.85-2.02,6.03-2.15-5.42-.77-9.37-.88-13.15-.22-7.69-2.93-10.91-10.65-11.16-9.01-.3-18.04.03-27.05-.07-10.64-.12-13.21-1.84-16.66-12.11-1.26-3.76-3.33-3.02-5.96-2.44-5.28,1.16-10.55,2.53-15.9,3.19-9.25,1.13-15.02-2.34-17.66-10.77-.8-2.57-2.32-2.95-4.22-3.71-9.91-3.95-11.38-8.95-4.71-17.53,1.79-2.3,1.88-3.4.36-5.81-3.53-5.58-1.35-10.2,5.28-11.73,5.25-1.21,10.32-.06,14.99,2.33,5.07,2.6,9.71,2.22,14.7-.33,5.25-2.7,10.82-4.78,16.22-7.2,3.38-1.52,4.12-3.17.87-6.08-7.27-6.53-13.97-13.23-24.42-15.25-8.88-1.72-13.97-8.95-13.62-15.62.23-4.28,1.91-6.37,6.38-4.64,9.65,3.73,19.77,5.66,29.82,7.93,7.47,1.69,13.39,6.31,18.93,11.51,6.95,6.52,14.25,12.66,21.22,19.15,2.7,2.51,5.73,3.19,9.18,3.19,5.03,0,8.51,2.59,9.74,7.29,2.62,9.97,9.29,18.45,10.51,28.92.12,1,.35,2.16.94,2.92,11.91,15.21,9.13,33.91,10.47,50.99,1.63,20.73-2.49,41.58-10.51,61.2-.9,2.21-1.25,5.13-4.81,5.71Zm-30.13-159.38c-7.94-6.69-15.31-12.61-22.33-18.92-4.7-4.22-9.76-7.43-15.92-8.89-8.22-1.95-16.68-3.03-24.49-6.55-1.44-.65-3.04-1.2-4.18.34-1.02,1.38-.59,2.94.24,4.33,2.55,4.3,6.63,6.3,11.29,7.28,6.12,1.29,11.98,3.14,16.32,7.95,10.12,11.21,22.79,15.81,39.07,14.44Z"/>
      <path class="cls-1" d="m78.26,25.98c1.04-3.06,1.42-3.97,1.65-4.92.41-1.74.53-4.16,2.96-3.61,2.45.55,2.47,2.96,2.11,5.11-.13.76-.38,1.5-.58,2.24q-3.02,11.42,8.53,15.58c8.49,3.03,16.94,6.19,25.53,8.91,6.72,2.12,10.72,5.94,10.35,13.34-.18,3.68,1.06,6.54,4.4,8.34,11.33,6.1,16.66,17.21,22.21,27.78,3.56,6.78,7.13,13.06,13.76,17.14,19.41,11.95,13.79,35.17,1.31,46.15-10.07,8.86-22.08,14.16-34.27,19.04-6.35,2.54-10.64,6.21-13.38,12.74-9.19,21.92-14.44,45.1-22.09,67.5-2.56,7.49-5.06,14.99-8.01,23.73-2.35-3.4-1.18-5.5-.61-7.49,7.72-26.98,15.48-53.95,23.18-80.93.54-1.88,2.33-3.99.72-5.78-1.77-1.98-3.85.05-5.67.63-20.83,6.66-41.9,10.76-63.8,6.06-1.76-.38-3.51-.81-5.23-1.33-.95-.29-1.82-.83-2.73-1.27.73-3.07,2.86-1.84,4.39-1.68,43.02,4.46,81.07-10.31,117.73-30.43,4.82-2.65,8.57-6.62,11.65-11.13,6.45-9.44,5.3-20.67-2.82-28.74-.91-.91-1.88-1.77-2.8-2.66-3.15-3.05-5.8-7.54-9.54-8.8-5.13-1.72-5.31,5.58-9.04,7.66-5.17,2.89-10.06,6.18-15.92,7.68-7.61,1.95-10.5.16-9.79-7.51,1.1-11.87,3.65-23.44,10.86-33.4,2.07-2.86,5.47-5.76.85-9.02-3.57-2.51-6.3-7.12-12.16-1.7-3.75,3.47-7.35,5.81-7.43,11.38-.03,2.04-1.42,3.93-3.57,4.66-.86.29-2.07.27-2.86-.13-1.13-.56-.89-1.8-.23-2.64,4.34-5.5,3.57-13.45,11.9-17.63,8.13-4.08,6.35-12.91-2.21-17.48-8.26-4.41-17.58-5.79-26.43-8.45-19.47-5.86-29.79-19.23-33.24-38.66-.38-2.15-1.99-5.2.84-6.13,2.86-.94,3.15,2.58,4.15,4.44,2.35,4.38,5.22,8.26,9.42,11.05,2.99,1.99,5.78,4.17,5.89,10.33Zm50.59,97.57c9.4-2.17,15.8-6.12,20.84-12.24,3.68-4.46,3.91-9.31,1.21-14.32-1.11-2.06-3.08-3.75-4.56-.93-4.84,9.22-13.48,16.05-17.49,27.5Z"/>
    </g>
  </g>
</svg>