<?xml version="1.0" encoding="UTF-8"?>
<svg id="Layer_2" data-name="Layer 2" xmlns="http://www.w3.org/2000/svg" viewBox="0 0 519.33 554.66">
  <defs>
    <style>
      .cls-1 {
        stroke-width: 0px;
      }
    </style>
  </defs>
  <g id="Layer_1-2" data-name="Layer 1">
    <g>
      <path class="cls-1" d="m229.83,452.52c-9.98-15.39-22.48-29.01-31.42-45.12-25.44-45.88-52.17-91.09-74.79-138.46-9.34-19.56-11.53-40.16.52-60.05,7.16-11.82,18.26-19.05,30.2-25.01,16.62-8.29,34.5-13.96,50.24-24.13.5-.32,1.39-.04,3.01-.04-3.84,6.11-9.46,8.97-14.87,11.7-12.05,6.08-24.41,11.53-36.53,17.46-25.41,12.44-36.46,30.34-34.01,55.02,1.12,11.31,4.81,21.97,10.14,31.87,25.02,46.41,49.54,93.13,76.58,138.39,15.69,26.26,35.8,49.51,54.97,73.33,11.5,14.3,22.42,29.11,38.07,39.37,21.7,14.22,45.98,20.26,71.46,22.17,18.11,1.36,18.54,1.22,21.17-16.45,5.3-35.64,5.19-71.51,4.21-107.46-1.47-54.28-13.71-106.93-22.67-160.12-5.87-34.83-2.26-69.29,6.47-103.6,7.63-29.98,15.29-60.1,19.1-90.9,1.65-13.35,1.04-26.95,3.5-40.28.33-1.78.38-3.91-1.84-4.42-2.26-.52-3.21,1.47-3.51,3.21-.97,5.5-2.2,11.02-2.41,16.57-.85,22.43-1.52,44.86-10.84,65.87-2.21,4.97-.88,10.52-2.54,16.35-4.33-4.06-2.79-8.35-2.08-12.36,1.78-10.05,7.44-19.01,8.41-29.3,1.75-18.49,3.43-36.99,5.19-55.47.18-1.86.4-3.72-1.62-4.61-1.99-.87-3.35.6-4.65,1.81-2.69,2.5-4.55,5.59-5.37,9.1-2.56,10.88-5.46,21.72-7.2,32.74-3.05,19.23-11.47,36.35-20.19,53.3-4.98,9.69-12.2,18.36-9.14,30.7-5.56-3.27-5.68-8.7-5.87-13.55-.54-13.76.46-27.49,2.21-41.15.65-5.09.87-10.15.48-15.24-.14-1.82-.71-3.67-2.71-4.21-2.18-.59-3.15,1.26-4.16,2.67-3.98,5.6-5.49,12.12-5.82,18.74-.57,11.62-3.82,22.4-7.95,33.21-8.71,22.82-9.08,45.52,2.13,68.01,8.42,16.89,9.58,35.05,8.1,53.69-3.97,50.02-11.34,99.62-17.55,149.37-2.38,19.05-.25,38.65-.34,57.99-.01,2.8,1.26,6.15-2.26,8.59-4.12-4.98-3.72-11.14-4.03-16.64-.62-10.91-1.37-22.1.34-32.79,2-12.51-1.52-22.44-8.61-32.05-16.33-22.15-32.4-44.49-48.8-66.58-7.81-10.51-14.68-21.33-17.9-34.26-2.7-10.84-8.12-20.29-16.57-27.83-1.48-1.32-3.98-3.14-2.57-4.9,2.05-2.57,4.07.21,5.66,1.58,6.71,5.77,12.59,12.78,14.44,21.21,5.31,24.17,20.89,42.21,34.72,61.33,13.57,18.76,27.43,37.32,41.63,56.6,3.15-7.63,3.32-15.46,4.35-22.99,5.68-41.36,10.64-82.83,13.89-124.45,1.23-15.8-.71-31.72-8.16-46.15-11.67-22.61-11.06-45.73-2.85-68.86,4.11-11.58,8-22.95,9.06-35.33.67-7.78,2.53-15.58,7.9-23.39-10.35-.92-19.74.08-28.85-1.87-5.22-1.12-10.51-1.95-15.79-2.74-15.92-2.38-27.05-11.21-34-25.44-2.28-4.67-4.62-6.92-10.53-5.49-7.69,1.86-18.45-5.49-21.26-13.18-.36-.99-.88-2.14.24-2.68.74-.35,2.14-.26,2.76.24,1.57,1.26,2.93,2.8,4.24,4.34,4.81,5.65,10.13,9.54,17.87,5.44,2.58-1.37,4.42-.15,5.99,1.7,1.15,1.35,2.38,2.76,3.08,4.35,9.47,21.84,28.26,28.05,49.69,29.09,17.27.84,34.56,2.15,51.88.44,6.99-.69,12-2.65,13.17-10.8,1.04-7.27,3.51-14.32,5.17-21.5,3.05-13.19,10.55-18.58,23.67-17.01,4.05.49,5.26,3.09,4.66,6.45-5.11,28.73-2.46,58.07-10.22,86.96-6.69,24.91-14.56,49.92-18.33,75.45-4.25,28.74-3.16,57.9,3.17,86.6,12.02,54.56,20.83,109.6,21.43,165.59.36,32.83-.05,65.75-6.5,98.16-2.78,13.99-4.24,14.85-18.44,14.04-32.14-1.82-62.53-9.13-88.31-29.69-14.69-11.71-25.28-27.19-36.86-41.71-7.46-9.36-14.77-18.83-22.14-28.26-.72-.76-1.44-1.52-2.16-2.28Zm117.5-321.54c11.49-17.03,17.96-34.84,24.25-52.69,1.2-3.42-.17-5.44-4.33-4.17-4.9,1.5-9.99,1.8-15.09,1.66-4.1-.12-5.19,1.52-4.47,5.63,1.34,7.55.38,15.13-.22,22.75-.66,8.4-.15,16.89-.15,26.81Z"/>
      <path class="cls-1" d="m407.28,464.33c1.46-4.24,4.84-6.68,7.22-9.71,23.36-29.69,38.24-63.52,49.04-99.41,9.98-33.17,17.12-67.07,25.82-100.57,5.32-20.49,12.16-40.45,19.3-60.34,2.58-7.2,4.58-14.55,5.4-22.2,3.69-34.32-25.84-52.97-50.12-54.98-3.04-.25-6.11-.2-9.16-.07-18.75.8-29.42,13.7-26.54,32.15.63,4.02,1.38,8.06,2.62,11.92,7.25,22.68,4.54,45-3.58,66.61-8.86,23.58-19,46.68-28.68,69.95-.79,1.89-1.2,5.38-4.27,4.14-2.96-1.2-1.14-4.06-.29-5.98,7.59-17.24,15.34-34.41,22.95-51.65,7.02-15.91,12.54-32.28,14.45-49.67,1.36-12.45-2.11-24.21-5.31-36.02-1.19-4.41-2.07-8.92-2.71-13.44-1.83-13.1,3.45-24.35,15.49-29.4,20.85-8.76,40.61-4.49,58.46,8.25,16.98,12.11,24.22,29.01,21.37,49.86-1.66,12.19-5.82,23.72-10.02,35.19-12.55,34.28-20.06,69.95-28.85,105.26-8.07,32.41-17.41,64.39-32.08,94.56-9.07,18.66-20.22,35.93-33.94,51.5-1.57,1.78-2.88,4.21-6.57,4.06Z"/>
      <path class="cls-1" d="m229.83,452.52c.72.76,1.44,1.52,2.16,2.28-13.67,5.49-28.31,5.72-42.6,7.76-35.25,5.04-70.58,9.39-105.61,16.01-22.57,4.26-40.84,16.48-59.43,28.5-5.77,3.73-11.49,7.55-17.33,11.17-1.99,1.24-4.7,3.97-6.55.89-1.76-2.93,1.85-4.16,3.76-5.58,33.22-24.77,69.33-41.63,111.37-46.04,38.16-4.01,76.04-10.81,114.23-14.98Z"/>
      <path class="cls-1" d="m259.02,508.84c-.62,2.66-2.96,2.63-4.8,3.09-40.6,10-81.36,18.81-123.6,16.41-8.38-.48-16.75-1.12-25.13-1.53-16.84-.83-31.6,4.09-43.81,16.05-1.68,1.64-3.78,4.75-6.26,2.07-2.32-2.5.73-4.58,2.38-6.29,11.02-11.43,24.85-16.94,40.39-17.11,15.5-.17,31,1.17,46.51,1.57,36.47.93,71.72-7.54,107.18-14.29,2.34-.44,4.74-2.11,7.14.03Z"/>
      <path class="cls-1" d="m350.89,34.56c-12.33-.28-24.16-2.59-34.97-8.9-3.99-2.33-6.06-4.66-1.06-8.37,2.4-1.77,4.42-4.22,6.14-6.7,9.6-13.76,23.11-11.09,36.35-8.51,6.25,1.21,16.06,17.16,15.71,23.72-.17,3.13-2.08,4.42-4.39,5.58-5.6,2.82-11.61,3.46-17.79,3.18Zm-27.07-19.05c7.21-1.24,13.55-4.43,20.78-4.96,7.77-.56,12.95,6.05,20.51,7.13-3.29-13.96-14.86-11.86-23.98-13.39-8.56-1.44-12.56,5.86-17.31,11.21Zm-1.25,7.14c13.11,8.43,36.83,9.74,44.76,2.57-14.7-4.15-29.33-3.92-44.76-2.57Z"/>
    </g>
  </g>
</svg>