<?xml version="1.0" encoding="UTF-8"?>
<svg id="Layer_2" data-name="Layer 2" xmlns="http://www.w3.org/2000/svg" viewBox="0 0 2121.07 2116.09">
  <defs>
    <style>
      .cls-1 {
        stroke-width: 0px;
      }
    </style>
  </defs>
  <g id="Layer_2-2" data-name="Layer 2">
    <g>
      <path class="cls-1" d="m1062.14,254.57c46,0,92.01.62,137.99-.29,19.22-.38,31.36,6.75,40.79,23.36,38.97,68.65,79.65,136.34,117.74,205.46,11.82,21.46,24.91,30.23,50.01,29.69,78.93-1.72,157.92-.14,236.87-.96,20.17-.21,32.76,7.15,42.6,24.44,45.5,79.92,91.54,159.54,137.91,238.97,9.57,16.39,9.78,30.98.04,47.31-21.98,36.86-42.44,74.63-64.73,111.29-8.99,14.79-6.43,20.19,9.97,24.96,92.52,26.9,186.89,40.42,283.14,41.32,47.03.44,53.83,4.36,58.81,50.65,11.35,105.46,10.83,210.99-4.91,316.13-11.04,73.69-28.4,145.76-56.29,215.05-2.57,6.4-4.83,12.96-7.94,19.09-8.52,16.75-22.39,24.01-39.95,16.73-17.66-7.32-22.65-22.41-15.65-39.98,19.32-48.5,34.45-98.18,46.3-149.03,25.82-110.85,26.23-223.24,21.95-335.99-.75-19.63-6.59-30.44-31-31.73-136.25-7.18-269.51-29.02-392.71-92.3-10.27-5.28-18.27-3.85-27.87,1.23-14.86,7.87-30.2,15.13-45.97,20.92-19.4,7.13-36.44.31-42.22-16.06-6.6-18.71,2.4-31.04,18.52-39.24,22.52-11.46,45.32-22.36,67.85-33.79,15.71-7.98,29.25-2.81,43.37,4.92,45.45,24.87,45.63,24.66,71.85-20.3,13.9-23.83,27.21-48.02,41.56-71.57,6.82-11.19,6.52-20.69-.06-31.94-38.28-65.51-76.24-131.2-113.81-197.12-6.54-11.47-14.73-15.59-27.77-15.5-74.36.49-148.73.57-223.08-.06-14.25-.12-22.36,5.13-29.18,17.12-37.15,65.28-74.62,130.37-112.67,195.13-7.24,12.33-6.4,22.01.58,33.87,29.93,50.86,59.39,102,88.41,153.38,6.66,11.78,13.93,16.2,27.67,12.53,18.44-4.93,37.47-7.69,56.23-11.42,22.41-4.46,37.26,2.6,42.34,20.18,4.85,16.76-5.8,33.2-26.99,38.55-56.5,14.26-113.98,23.05-172.01,28.12-22.11,1.93-44.27,3.37-66.44,4.35-11,.49-16.45,4.28-17.45,16.15-17.13,203.94,3.15,401.2,106.65,582.78,73.08,128.21,179.78,219.55,314.04,279.57,9.12,4.08,17.12,4.44,26.3.42,39.44-17.28,76.56-38.6,112.35-62.47,13.36-8.91,15.09-16.33.19-24.82-5.32-3.03-10.66-6.17-15.5-9.88-22.03-16.92-21.22-39.37,2.11-54.24,10.33-6.58,21.43-11.93,31.83-18.41,46.7-29.11,79.71-68.65,94.14-122.72,5.53-20.7,12.63-40.97,19.06-61.43,4.66-14.83,14.87-23.77,30.3-23.54,14.52.21,23.93,9.42,28.4,23.02,6.45,19.64,13.34,39.2,18.49,59.2,16.23,62.96,56.62,105.58,112.19,135.86,4.71,2.57,9.62,4.83,14.08,7.77,23.81,15.73,24.23,39.04.92,55.75-17.43,12.49-35.94,23.61-52.51,37.13-37.05,30.25-64.42,67.36-76.93,114.47-4.71,17.74-10.39,35.29-16.79,52.5-4.93,13.25-14.84,21.21-29.92,20.68-13.98-.49-23.09-8.11-27.44-20.73-6.74-19.53-12.54-39.39-18.8-59.09-7.49-23.56-18.74-45.08-33.13-65.29-9.98-14.01-18.25-16.75-33.31-5.56-44.43,33.02-92.91,59.27-143.55,81.72-18.7,8.29-35.22,9.36-54.75.9-116.18-50.32-215.49-122.38-293.53-222.75-15.57-20.02-15.78-19.92-28.55,1.96-11.21,19.19-22.6,38.29-33.44,57.68-7.42,13.26-17.66,20.25-33.36,19.93-26.05-.53-52.13-.1-78.19-.19-18.72-.07-31.12-8.07-32.35-27.99-1.13-18.29,11.62-33.12,32.31-29.39,52.81,9.52,78.06-16.9,99.67-60.47,13.83-27.88,17.94-47.57,1.77-76.59-52.01-93.36-79.13-195.56-94.89-300.74-2.38-15.9-8.29-20.33-23.34-20.16-54.42.64-108.86.55-163.29.04-12.32-.11-19.72,4.38-25.74,14.91-38.02,66.54-76.33,132.92-114.98,199.1-6.22,10.65-5.71,19.38.36,29.8,38.23,65.54,76.25,131.2,113.7,197.18,7.03,12.39,15.8,16.88,29.66,16.28,20.66-.9,41.39-.43,62.08-.04,19.13.36,30.87,10.22,30.6,29.63-.25,18.17-11.58,28.01-29.63,28.25-33.72.45-67.46-.02-101.19.22-16.34.12-24.47-10.23-31.67-22.72-40.93-71.06-82.41-141.81-122.7-213.23-9.01-15.97-19.37-22.28-38.06-22.04-80.48,1.04-160.99-.16-241.48.83-21.82.27-35.6-7-46.38-26.05-44.93-79.36-90.62-158.3-136.69-237.01-10.16-17.37-9.35-32.34.63-49.34,40.73-69.4,80.06-139.63,121.42-208.65,10.62-17.73,9.87-30.71-.43-47.99-40.81-68.46-79.69-138.06-120.24-206.68-11.09-18.77-10.99-34.63.05-53.39,45.47-77.28,90.32-154.94,134.42-233.01,11.12-19.69,24.98-27.81,47.91-27.47,77.41,1.17,154.89-.95,232.26,1.21,26.47.74,39.58-8.93,51.69-30.81,37.84-68.39,78.15-135.41,116.62-203.46,9.87-17.46,22.36-24.86,42.5-24.42,46.74,1.03,93.52.33,140.29.33Zm-.4,58.34c-36.01,0-72.04.72-108.02-.32-16.39-.48-26.64,4.3-34.99,19.16-36.4,64.77-73.68,129.04-111.32,193.1-7.23,12.3-6.89,22.2.55,33.84,9.47,14.83,18.2,30.2,26.23,45.86,8.54,16.64,5.79,32.16-10.88,41.69-16.84,9.64-31.38,3.33-41.4-12.15-9.56-14.77-18.57-29.99-26.6-45.64-6.72-13.1-15.61-18.42-30.82-18.27-73.55.74-147.11.62-220.66.08-13.8-.1-22.63,3.88-29.66,16.25-37.09,65.26-74.7,130.23-112.61,195.02-6.93,11.84-7.69,21.63-.47,33.92,38,64.73,75.55,129.74,112.51,195.07,7.5,13.25,16.89,17.24,31.51,17.11,72.78-.61,145.58-.79,218.36.11,16.29.2,24.94-6.01,32.49-19.45,28.54-50.73,54.87-103.12,88.01-150.73,28.82-41.4,34.09-77.29-.42-115.91-1.99-2.23-3.12-5.25-4.53-7.97-8.62-16.65-6.74-31.4,9.32-42.21,14.47-9.74,32.42-4.67,43.19,12.31,10.24,16.16,20,32.7,28.83,49.67,6.52,12.54,15.54,16.68,29.49,16.57,73.55-.57,147.11-.54,220.66-.03,13.67.09,22.67-3.51,29.77-16.02,37.41-65.96,75.38-131.6,113.69-197.04,6.7-11.44,6.17-20.64-.37-31.82-37.88-64.8-75.52-129.76-112.48-195.09-7.45-13.16-16.51-17.8-31.33-17.41-35.99.93-72.01.3-108.03.3Zm-447.29,772.8c-36.77,0-73.56.47-110.32-.24-13.67-.26-22.71,3.45-29.81,15.96-37.43,65.94-75.42,131.57-113.7,197.02-6.65,11.38-6.2,20.66.35,31.87,37.88,64.8,75.39,129.81,112.55,195.03,6.73,11.82,14.49,17.63,28.93,17.5,74.31-.67,148.63-.64,222.94-.02,14.19.12,22.38-5,29.22-17.02,37.12-65.23,74.68-130.22,112.52-195.04,6.43-11.01,7.67-20.25.88-31.84-38.31-65.43-76.24-131.09-113.7-197.02-6.98-12.28-15.63-16.76-29.55-16.46-36.76.79-73.54.27-110.32.27Zm447.89-257.59c-38.31,0-76.62.36-114.91-.21-12.19-.18-19.81,4-25.88,14.64-37.98,66.51-76.29,132.83-114.89,198.97-6.12,10.48-6.31,19.21-.14,29.78,38.22,65.48,76.17,131.13,113.65,197.04,6.88,12.1,15.17,17.12,29.3,16.89,45.95-.76,91.93-.27,137.89-.28q36.8,0,35.93-35.89c-.09-3.83,0-7.69-.45-11.48-7.75-65.97.72-131.46,6.33-196.96,2.6-30.34,14.43-39.78,44.97-40.28,30.61-.5,61.16-.49,91.7-4.21,14.57-1.78,19.95-4.33,11.28-19.03-26.45-44.86-52.55-89.93-78.17-135.27-6.21-10.98-14.44-14.05-26.28-13.89-36.77.49-73.54.18-110.32.18Zm843.73,863.16c-23.48,49.64-53.96,87.54-92.94,118.4-6.24,4.94-7.85,8.7-.83,14.09,40.04,30.76,69.94,69.94,93.86,118.36,24.74-46.96,52.83-86.57,92.41-116.79,9.42-7.19,4.06-13.02-2.51-18.29-37.62-30.18-65.69-68.03-89.99-115.77Z"/>
      <path class="cls-1" d="m215.2,0c14.46,1.41,24.09,8.73,28.51,22.78,5.28,16.78,11.14,33.39,16.09,50.26,23.1,78.73,69.32,138.88,142.12,177.84,2.7,1.44,5.41,2.88,7.99,4.53,25.05,16.07,26.05,42.73-.34,56.35-84.8,43.77-133.61,114.15-156.78,204.68-2.08,8.14-5.1,16.03-7.48,24.1-4.51,15.32-13.31,26.37-30.3,26.69-18.32.34-27.01-11.77-31.9-27.72-5.15-16.82-10.63-33.53-15.74-50.37-23.14-76.2-69.41-133.64-139.21-172.06-3.35-1.85-6.79-3.57-9.98-5.67-23.75-15.64-24.84-42.22.36-55.13,90.91-46.54,138.55-123.96,162.03-219.77C185.1,18.04,191.65.76,215.2,0Zm-.64,131.52c-16.73,30.51-29.38,56.65-47.67,79.52-18.77,23.47-39.71,44.51-63.3,63.03-11.25,8.83-5.29,15.48,2.82,21.77,21.26,16.51,39.88,35.56,57.05,56.33,20,24.19,34.11,51.97,49.26,80.12,3.29-2.75,5.65-3.8,6.49-5.56,25.42-53.44,60.43-99.21,108.09-134.74,11.9-8.88,3.77-13.61-3.04-18.82-25.71-19.68-47.84-42.8-67.25-68.68-16.01-21.35-28.15-45.06-42.45-72.97Z"/>
      <path class="cls-1" d="m398.87,2116.09c-95.2.04-172.12-75.98-172.03-170,.09-92.8,79.54-172.49,171.73-172.23,94.09.26,171.03,77.54,171.09,171.83.07,95.14-75.32,170.35-170.79,170.39Zm108.98-169.17c.27-61.78-48.58-111.52-109.48-111.48-59.85.04-109.41,49.69-109.46,109.67-.05,61.9,49.53,112.23,110,111.65,60.64-.58,108.68-49.01,108.94-109.84Z"/>
      <path class="cls-1" d="m2119.98,265.74c-.08,71.1-57.32,129.19-127.69,129.59-70.77.41-130.93-58.85-131.53-129.57-.6-70.33,59.41-130.39,130.41-130.52,71.91-.13,128.89,57.59,128.8,130.49Zm-128.53,67.49c37.5.01,69.25-31.35,69.12-68.28-.12-37-31.73-67.77-69.48-67.64-38.16.14-68.94,30.55-68.87,68.04.07,37.37,31.17,67.86,69.22,67.88Z"/>
      <path class="cls-1" d="m1714.76,1435.05q-64.07.2-64.07,63.4c0,15.32.28,30.64-.12,45.95-.59,22.47-12,36.45-29.49,36.9-16.81.43-29.77-13.83-31.63-35.66-.78-9.13.17-18.4-.53-27.55-2.03-26.42,11.79-60.34-6.11-77.34-17.56-16.69-51.19-3.71-77.7-5.43-7.63-.49-15.32.06-22.97-.14-23.8-.61-36.07-10.43-36.47-29.02-.39-18.14,11.86-29.5,34.93-31.68,8.36-.79,16.87.1,25.24-.63,26.38-2.29,59.96,11.86,77.36-6.41,17.1-17.96,3.79-51.27,5.74-77.75.51-6.86-.11-13.8.29-20.67,1.52-25.74,13.37-39.62,32.78-38.75,18.6.84,28.4,14.08,28.61,39.45.24,28.33.46,56.68-.03,85.01-.24,13.82,5.7,19.39,19.17,19.21,23.74-.31,47.48-.19,71.22.09,9.15.11,18.38.57,27.43,1.9,17.62,2.59,28.41,13.46,27.5,31.04-.91,17.62-12.83,27.35-30.62,27.95-16.83.57-33.69.12-50.54.12Z"/>
    </g>
  </g>
</svg>