<?xml version="1.0" encoding="UTF-8"?>
<svg id="Layer_2" data-name="Layer 2" xmlns="http://www.w3.org/2000/svg" viewBox="0 0 2295.03 2294.99">
  <defs>
    <style>
      .cls-1 {
        stroke-width: 0px;
      }
    </style>
  </defs>
  <g id="Layer_2-2" data-name="Layer 2">
    <g>
      <path class="cls-1" d="m2163.49,0c66.01,20.66,111.72,61.45,128.19,130.54,2.56,10.73,3.1,22.15,3.1,33.26.16,336.65.23,673.3.05,1009.95-.05,89.89-72.71,165.99-162.54,166.39-243.34,1.1-486.69,1.16-730.03-.06-90.29-.45-162.62-78.62-162.72-171.87-.28-263.5-.11-527-.12-790.49,0-65.69-.03-131.38,0-197.06.06-89.54,39.3-145.91,123.1-177.02,2.77-1.03,5.42-2.41,8.12-3.63,264.28,0,528.56,0,792.83,0Zm-774.15,667.37c0,161.19-.02,322.38.01,483.57,0,37.83,1.86,39.75,38.74,39.76,226.11.04,452.22.03,678.34,0,37.53,0,42.06-4.61,42.06-42.89.03-319.39.03-638.79,0-958.18,0-38.04-6.52-44.72-43.75-44.73-224.62-.05-449.24-.05-673.86,0-36.49,0-41.51,5.02-41.52,41.15-.04,160.44-.02,320.88-.02,481.33Z"/>
      <path class="cls-1" d="m0,1083.99c18.51-55.89,51.14-99.1,108.2-120.29,19.03-7.07,38.66-10.94,59.05-10.93,238.86.04,477.71-.26,716.57.16,94.11.17,169.83,75.46,169.95,169.38.41,334.4.4,668.8.02,1003.2-.11,96.23-74.6,169.32-171.11,169.37-231.39.13-462.79.05-694.18.05-102.59,0-152.55-34.84-188.5-131.43v-1079.51Zm904.04,540.11c0-161.94.04-323.87-.03-485.81-.01-32.69-2.97-35.58-36.16-35.59-227.6-.06-455.21-.05-682.81,0-34.8,0-40.12,5.31-40.13,40.3-.05,320.89-.05,641.77,0,962.66,0,35.92,7.03,42.83,43.39,42.84,224.62.06,449.24.05,673.86,0,37.25,0,41.87-4.81,41.87-43.07.03-160.44.01-320.89,0-481.33Z"/>
      <path class="cls-1" d="m922.73,0c60.03,19.94,104.79,55.78,123.52,118.69,4.91,16.5,7.8,33.22,7.78,50.58-.17,142.43.26,284.86-.23,427.29-.32,95.23-75.47,170.4-170.82,170.57-234.9.41-469.79.19-704.69.14-86.04-.02-143.37-40.02-173.91-120.94-1.31-3.48-2.92-6.84-4.38-10.26,0-168.72,0-337.44,0-506.16C19.82,63.12,63.18,19.88,129.9,0h792.83Zm-396.77,617.37c114.15,0,228.31.05,342.46-.03,32.68-.02,35.57-2.98,35.59-36.16.07-132.81.08-265.61,0-398.42-.02-31.67-6.13-37.82-38.07-37.83-226.82-.08-453.63-.09-680.45,0-33.04.01-40.54,7.66-40.56,41.12-.11,130.57-.1,261.14-.01,391.7.02,34.29,5.56,39.57,40.83,39.59,113.41.05,226.82.02,340.22.02Z"/>
      <path class="cls-1" d="m1769.33,2294.91c-120.9,0-241.81.19-362.71-.06-90.83-.19-166.21-73.46-166.83-164.4-1-146.27-.96-292.56-.02-438.83.57-88.84,76.1-164.84,164.87-165.14,241.8-.83,483.62-.81,725.42-.02,91.1.3,164.63,75.72,164.79,166.41.26,145.53.27,291.06,0,436.6-.17,91.04-74.16,165.16-165.04,165.37-120.16.29-240.32.07-360.47.07Zm-.94-618.88c-114.15,0-228.31-.04-342.46.03-33.58.02-36.52,2.81-36.54,35.18-.08,133.55-.09,267.1.01,400.65.02,30.16,6.42,36.56,37.08,36.57,227.56.1,455.12.11,682.68,0,31.48-.02,39.27-8.06,39.3-40.15.13-131.31.12-262.63.01-393.94-.03-32.07-6.16-38.26-37.62-38.29-114.15-.09-228.31-.04-342.46-.04Z"/>
    </g>
  </g>
</svg>