<?xml version="1.0" encoding="UTF-8"?>
<svg id="Layer_2" data-name="Layer 2" xmlns="http://www.w3.org/2000/svg" viewBox="0 0 167.77 167.77">
  <defs>
    <style>
      .cls-1 {
        fill: #fff;
      }

      .cls-1, .cls-2 {
        stroke-width: 0px;
      }

      .cls-2 {
        fill: #231f20;
      }
    </style>
  </defs>
  <g id="Layer_1-2" data-name="Layer 1">
    <g>
      <circle class="cls-2" cx="83.89" cy="83.89" r="83.89"/>
      <g>
        <path class="cls-1" d="m81.29,125.96c-.31-.03-.61-.07-.92-.07-6.93-.22-13.65-1.48-20.03-4.28-5.23-2.3-9.9-5.42-13.9-9.53-2.93-3.02-5.32-6.42-7.26-10.15-1.72-3.31-3.02-6.79-4.05-10.38-.06-.2-.1-.42-.11-.62-.02-.42.22-.71.6-.78.39-.07.65.07.8.5.32.94.62,1.9.93,2.85,1.69,5.19,4.28,9.89,7.79,14.09,5.09,6.1,11.41,10.37,18.96,12.84,3.17,1.04,6.4,1.78,9.72,2.09,2.09.2,4.19.34,6.29.34,5.6-.01,11.06-.94,16.39-2.66,6.22-2,11.93-4.98,17.1-8.98,5.1-3.95,9.32-8.68,12.63-14.23,1.07-1.79,2.18-3.56,3.28-5.34.39-.63.92-1.03,1.7-.93,1.06.14,1.53.7,1.53,1.77,0,.88-.25,1.7-.57,2.5-2.03,4.99-4.92,9.44-8.66,13.31-7.5,7.76-16.49,13.01-26.95,15.71-2.96.76-5.95,1.31-8.99,1.57-1.66.14-3.32.22-4.98.32-.08,0-.16.04-.25.05h-1.05Z"/>
        <path class="cls-1" d="m138.38,89.62c-.3.61-.75,1.01-1.46,1.05-.46.03-.81-.17-1.04-.54-1.19-1.96-3.03-2.86-5.21-3.21-.54-.09-1.09-.13-1.63-.21-.48-.07-.67-.25-.7-.64-.02-.36.17-.59.62-.73,2.13-.67,4.17-.36,6.15.56.95.44,1.8,1.04,2.52,1.8.32.33.51.78.75,1.18v.75Z"/>
        <path class="cls-1" d="m67.69,61.79c-.19-1.1-.43-2.16-.54-3.24-.33-3.13-.03-6.16,1.55-8.97.22-.39.49-.76.78-1.1.57-.67,1.35-.85,2.13-.43.48.26.95.57,1.34.95,2.05,2.02,3.59,4.35,4.26,7.19.38,1.62.39,3.27.23,4.92-.15,1.54-.51,3.03-1.14,4.44-1.25,2.83-3.47,4.51-6.38,5.35-2.06.6-4.16.64-6.28.41-4.14-.44-7.12-2.74-9.59-5.87-.22-.28-.37-.63-.47-.97-.18-.62.04-1.18.59-1.53,2.35-1.48,4.88-2.22,7.68-2.11,1.9.07,3.75.4,5.57.9.09.03.19.04.29.06Z"/>
        <path class="cls-1" d="m108.53,76.18c-1.56-2.97-3.01-5.95-5-8.68-2.32,1.71-4.08,3.94-5.97,6.14-.4-.76-.78-1.47-1.13-2.2-.7-1.46-1.31-2.97-1.64-4.57-.05-.23-.02-.4.15-.57,1.45-1.51,3.11-2.74,4.92-3.79.16-.09.33-.18.55-.31-.27-.27-.51-.53-.78-.76-.97-.83-1.94-1.66-2.93-2.47-.19-.16-.22-.29-.15-.5.63-1.75,1.54-3.36,2.58-4.89.33-.5.73-.95,1.14-1.49,2.01,1.97,3.58,4.18,4.79,6.57,2.43-1.41,4.85-2.81,7.35-4.26.23.8.49,1.5.62,2.23.28,1.6.49,3.21.73,4.81.04.27-.07.37-.31.45-1.61.56-3.22,1.14-4.83,1.71-.17.06-.34.15-.51.23.65.79,1.32,1.52,1.88,2.32.92,1.31,1.77,2.66,2.63,4.01.08.13.11.36.05.51-.73,2-1.91,3.7-3.53,5.08-.18.15-.39.26-.62.41Z"/>
        <path class="cls-1" d="m32.38,86.32c.01-.44.28-.81.65-1.12.89-.74,1.94-1.12,3.07-1.27.49-.07.99-.03,1.49,0,.21.01.44.12.62.24.5.31.46.87-.08,1.1-.47.2-.96.36-1.45.51-1.11.33-2.22.65-3.23,1.27-.49.3-1.07-.09-1.07-.72Z"/>
      </g>
    </g>
  </g>
</svg>