<?xml version="1.0" encoding="UTF-8"?>
<svg id="Layer_2" data-name="Layer 2" xmlns="http://www.w3.org/2000/svg" viewBox="0 0 1015 1015">
  <defs>
    <style>
      .cls-1 {
        fill: none;
      }

      .cls-1, .cls-2 {
        stroke-width: 0px;
      }

      .cls-2 {
        fill: #fff;
      }
    </style>
  </defs>
  <g id="Layer_1-2" data-name="Layer 1">
    <g>
      <path class="cls-2" d="m332.5,0h17.5v35h-17.5c-9.67,0-17.5-7.84-17.5-17.5s7.83-17.5,17.5-17.5Z"/>
      <rect class="cls-2" x="350" width="35" height="35"/>
      <rect class="cls-2" x="385" width="35" height="35"/>
      <path class="cls-2" d="m437.5,35h-17.5V0h17.5c9.66,0,17.5,7.84,17.5,17.5s-7.84,17.5-17.5,17.5Z"/>
      <path class="cls-2" d="m507.5,0c9.67,0,17.5,7.84,17.5,17.5s-7.83,17.5-17.5,17.5-17.5-7.83-17.5-17.5,7.84-17.5,17.5-17.5Z"/>
      <path class="cls-2" d="m700,17.5v17.5s-11.91,0-17.5,0c-4.36,0-17.5,0-17.5,0v-17.5c0-9.66,7.84-17.5,17.5-17.5s17.5,7.84,17.5,17.5Z"/>
      <path class="cls-2" d="m297.5,35c9.67,0,17.5,7.84,17.5,17.5s-7.83,17.5-17.5,17.5-17.5-7.83-17.5-17.5,7.84-17.5,17.5-17.5Z"/>
      <rect class="cls-2" x="385" y="35" width="35" height="35"/>
      <path class="cls-2" d="m472.5,35c9.67,0,17.5,7.84,17.5,17.5s-7.83,17.5-17.5,17.5-17.5-7.83-17.5-17.5,7.84-17.5,17.5-17.5Z"/>
      <path class="cls-2" d="m612.5,35c9.67,0,17.5,7.84,17.5,17.5s-7.83,17.5-17.5,17.5-17.5-7.83-17.5-17.5,7.84-17.5,17.5-17.5Z"/>
      <path class="cls-2" d="m700,70v-35h-35c0,19.33,15.67,35,35,35Z"/>
      <path class="cls-2" d="m717.5,70h-17.5v-35h17.5c9.66,0,17.5,7.84,17.5,17.5s-7.84,17.5-17.5,17.5Z"/>
      <path class="cls-2" d="m350,87.5v17.5s-11.91,0-17.5,0c-4.36,0-17.5,0-17.5,0v-17.5c0-9.66,7.84-17.5,17.5-17.5s17.5,7.84,17.5,17.5Z"/>
      <rect class="cls-2" x="385" y="70" width="35" height="35"/>
      <path class="cls-2" d="m542.5,70c9.67,0,17.5,7.84,17.5,17.5s-7.83,17.5-17.5,17.5-17.5-7.83-17.5-17.5,7.84-17.5,17.5-17.5Z"/>
      <path class="cls-2" d="m665,87.5v17.5s-11.91,0-17.5,0c-4.36,0-17.5,0-17.5,0v-17.5c0-9.66,7.84-17.5,17.5-17.5s17.5,7.84,17.5,17.5Z"/>
      <rect class="cls-2" x="315" y="105" width="35" height="35"/>
      <rect class="cls-2" x="385" y="105" width="35" height="35"/>
      <rect class="cls-2" x="420" y="105" width="35" height="35"/>
      <path class="cls-2" d="m455,105v35h35c0-19.33-15.67-35-35-35Z"/>
      <path class="cls-2" d="m595,122.5v17.5s-11.91,0-17.5,0c-4.36,0-17.5,0-17.5,0v-17.5c0-9.66,7.84-17.5,17.5-17.5s17.5,7.84,17.5,17.5Z"/>
      <path class="cls-2" d="m665,140v-35h-35c0,19.33,15.67,35,35,35Z"/>
      <rect class="cls-2" x="665" y="105" width="35" height="35"/>
      <path class="cls-2" d="m717.5,140h-17.5v-35h17.5c9.66,0,17.5,7.84,17.5,17.5s-7.84,17.5-17.5,17.5Z"/>
      <path class="cls-2" d="m297.5,140h17.5v35h-17.5c-9.67,0-17.5-7.84-17.5-17.5s7.83-17.5,17.5-17.5Z"/>
      <rect class="cls-2" x="315" y="140" width="35" height="35"/>
      <rect class="cls-2" x="350" y="140" width="35" height="35"/>
      <rect class="cls-2" x="385" y="140" width="35" height="35"/>
      <rect class="cls-2" x="420" y="140" width="35" height="35"/>
      <path class="cls-2" d="m490,140h-35v35c19.33,0,35-15.67,35-35Z"/>
      <rect class="cls-2" x="560" y="140" width="35" height="35"/>
      <rect class="cls-2" x="665" y="140" width="35" height="35"/>
      <rect class="cls-2" x="350" y="175" width="35" height="35"/>
      <path class="cls-2" d="m490,210h35v-35c-19.33,0-35,15.67-35,35Z"/>
      <rect class="cls-2" x="525" y="175" width="35" height="35"/>
      <rect class="cls-2" x="560" y="175" width="35" height="35"/>
      <path class="cls-2" d="m700,210v-35h-35c0,19.33,15.67,35,35,35Z"/>
      <path class="cls-2" d="m700,175v35h35c0-19.33-15.67-35-35-35Z"/>
      <path class="cls-2" d="m297.5,210c9.67,0,17.5,7.84,17.5,17.5s-7.83,17.5-17.5,17.5-17.5-7.83-17.5-17.5,7.84-17.5,17.5-17.5Z"/>
      <path class="cls-2" d="m350,227.5v-17.5h35v17.5c0,9.66-7.84,17.5-17.5,17.5s-17.5-7.84-17.5-17.5Z"/>
      <path class="cls-2" d="m455,227.5v17.5s-11.91,0-17.5,0c-4.36,0-17.5,0-17.5,0v-17.5c0-9.66,7.84-17.5,17.5-17.5s17.5,7.84,17.5,17.5Z"/>
      <path class="cls-2" d="m490,227.5v-17.5h35v17.5c0,9.66-7.84,17.5-17.5,17.5s-17.5-7.84-17.5-17.5Z"/>
      <path class="cls-2" d="m560,227.5v-17.5h35v17.5c0,9.66-7.84,17.5-17.5,17.5s-17.5-7.84-17.5-17.5Z"/>
      <path class="cls-2" d="m665,227.5v17.5s-11.91,0-17.5,0c-4.36,0-17.5,0-17.5,0v-17.5c0-9.66,7.84-17.5,17.5-17.5s17.5,7.84,17.5,17.5Z"/>
      <rect class="cls-2" x="700" y="210" width="35" height="35"/>
      <path class="cls-2" d="m350,262.5v17.5s-11.91,0-17.5,0c-4.36,0-17.5,0-17.5,0v-17.5c0-9.66,7.84-17.5,17.5-17.5s17.5,7.84,17.5,17.5Z"/>
      <path class="cls-2" d="m385,280h35v-35c-19.33,0-35,15.67-35,35Z"/>
      <rect class="cls-2" x="420" y="245" width="35" height="35"/>
      <path class="cls-2" d="m542.5,245c9.67,0,17.5,7.84,17.5,17.5s-7.83,17.5-17.5,17.5-17.5-7.83-17.5-17.5,7.84-17.5,17.5-17.5Z"/>
      <path class="cls-2" d="m595,280h35v-35c-19.33,0-35,15.67-35,35Z"/>
      <rect class="cls-2" x="630" y="245" width="35" height="35"/>
      <rect class="cls-2" x="700" y="245" width="35" height="35"/>
      <path class="cls-2" d="m17.5,280c9.67,0,17.5,7.84,17.5,17.5s-7.83,17.5-17.5,17.5-17.5-7.83-17.5-17.5,7.84-17.5,17.5-17.5Z"/>
      <path class="cls-2" d="m87.5,280c9.67,0,17.5,7.84,17.5,17.5s-7.83,17.5-17.5,17.5-17.5-7.83-17.5-17.5,7.84-17.5,17.5-17.5Z"/>
      <path class="cls-2" d="m157.5,280c9.67,0,17.5,7.84,17.5,17.5s-7.83,17.5-17.5,17.5-17.5-7.83-17.5-17.5,7.84-17.5,17.5-17.5Z"/>
      <path class="cls-2" d="m227.5,280c9.67,0,17.5,7.84,17.5,17.5s-7.83,17.5-17.5,17.5-17.5-7.83-17.5-17.5,7.84-17.5,17.5-17.5Z"/>
      <rect class="cls-2" x="315" y="280" width="35" height="35"/>
      <path class="cls-2" d="m420,315v-35h-35c0,19.33,15.67,35,35,35Z"/>
      <rect class="cls-2" x="420" y="280" width="35" height="35"/>
      <path class="cls-2" d="m560,315h35v-35c-19.33,0-35,15.67-35,35Z"/>
      <rect class="cls-2" x="595" y="280" width="35" height="35"/>
      <rect class="cls-2" x="630" y="280" width="35" height="35"/>
      <rect class="cls-2" x="665" y="280" width="35" height="35"/>
      <rect class="cls-2" x="700" y="280" width="35" height="35"/>
      <path class="cls-2" d="m857.5,280c9.67,0,17.5,7.84,17.5,17.5s-7.83,17.5-17.5,17.5-17.5-7.83-17.5-17.5,7.84-17.5,17.5-17.5Z"/>
      <path class="cls-2" d="m962.5,280c9.67,0,17.5,7.84,17.5,17.5s-7.83,17.5-17.5,17.5-17.5-7.83-17.5-17.5,7.84-17.5,17.5-17.5Z"/>
      <path class="cls-2" d="m245,350h35v-35c-19.33,0-35,15.67-35,35Z"/>
      <rect class="cls-2" x="280" y="315" width="35" height="35"/>
      <path class="cls-2" d="m350,315h-35v35c19.33,0,35-15.67,35-35Z"/>
      <rect class="cls-2" x="420" y="315" width="35" height="35"/>
      <path class="cls-2" d="m472.5,350h-17.5v-35h17.5c9.66,0,17.5,7.84,17.5,17.5s-7.84,17.5-17.5,17.5Z"/>
      <path class="cls-2" d="m525,350h35v-35c-19.33,0-35,15.67-35,35Z"/>
      <rect class="cls-2" x="560" y="315" width="35" height="35"/>
      <rect class="cls-2" x="700" y="315" width="35" height="35"/>
      <rect class="cls-2" x="735" y="315" width="35" height="35"/>
      <rect class="cls-2" x="770" y="315" width="35" height="35"/>
      <path class="cls-2" d="m805,315v35h35c0-19.33-15.67-35-35-35Z"/>
      <path class="cls-2" d="m892.5,315c9.67,0,17.5,7.84,17.5,17.5s-7.83,17.5-17.5,17.5-17.5-7.83-17.5-17.5,7.84-17.5,17.5-17.5Z"/>
      <path class="cls-2" d="m1015,332.5v17.5s-11.91,0-17.5,0c-4.36,0-17.5,0-17.5,0v-17.5c0-9.66,7.84-17.5,17.5-17.5s17.5,7.84,17.5,17.5Z"/>
      <path class="cls-2" d="m35,385h35v-35c-19.33,0-35,15.67-35,35Z"/>
      <rect class="cls-2" x="70" y="350" width="35" height="35"/>
      <rect class="cls-2" x="105" y="350" width="35" height="35"/>
      <rect class="cls-2" x="140" y="350" width="35" height="35"/>
      <rect class="cls-2" x="175" y="350" width="35" height="35"/>
      <rect class="cls-2" x="210" y="350" width="35" height="35"/>
      <path class="cls-2" d="m280,350h-35v35c19.33,0,35-15.67,35-35Z"/>
      <path class="cls-2" d="m385,385h35v-35c-19.33,0-35,15.67-35,35Z"/>
      <path class="cls-2" d="m455,350h-35v35c19.33,0,35-15.67,35-35Z"/>
      <path class="cls-2" d="m490,385h35v-35c-19.33,0-35,15.67-35,35Z"/>
      <rect class="cls-2" x="525" y="350" width="35" height="35"/>
      <rect class="cls-2" x="560" y="350" width="35" height="35"/>
      <path class="cls-2" d="m595,350v35h35c0-19.33-15.67-35-35-35Z"/>
      <path class="cls-2" d="m735,385v-35h-35c0,19.33,15.67,35,35,35Z"/>
      <rect class="cls-2" x="735" y="350" width="35" height="35"/>
      <path class="cls-2" d="m840,385v-35h-35c0,19.33,15.67,35,35,35Z"/>
      <path class="cls-2" d="m840,350v35h35c0-19.33-15.67-35-35-35Z"/>
      <path class="cls-2" d="m927.5,350h17.5v35h-17.5c-9.67,0-17.5-7.84-17.5-17.5s7.83-17.5,17.5-17.5Z"/>
      <rect class="cls-2" x="945" y="350" width="35" height="35"/>
      <path class="cls-2" d="m1015,350h-35v35c19.33,0,35-15.67,35-35Z"/>
      <path class="cls-2" d="m0,420h35v-35c-19.33,0-35,15.67-35,35Z"/>
      <rect class="cls-2" x="35" y="385" width="35" height="35"/>
      <rect class="cls-2" x="105" y="385" width="35" height="35"/>
      <path class="cls-2" d="m175,402.5v-17.5h35v17.5c0,9.66-7.84,17.5-17.5,17.5s-17.5-7.84-17.5-17.5Z"/>
      <path class="cls-2" d="m350,420h35v-35c-19.33,0-35,15.67-35,35Z"/>
      <path class="cls-2" d="m420,385h-35v35c19.33,0,35-15.67,35-35Z"/>
      <path class="cls-2" d="m472.5,385h17.5v35h-17.5c-9.67,0-17.5-7.84-17.5-17.5s7.83-17.5,17.5-17.5Z"/>
      <rect class="cls-2" x="490" y="385" width="35" height="35"/>
      <path class="cls-2" d="m595,420v-35h-35c0,19.33,15.67,35,35,35Z"/>
      <rect class="cls-2" x="595" y="385" width="35" height="35"/>
      <rect class="cls-2" x="735" y="385" width="35" height="35"/>
      <path class="cls-2" d="m770,385v35h35c0-19.33-15.67-35-35-35Z"/>
      <path class="cls-2" d="m840,402.5v-17.5h35v17.5c0,9.66-7.84,17.5-17.5,17.5s-17.5-7.84-17.5-17.5Z"/>
      <rect class="cls-2" x="945" y="385" width="35" height="35"/>
      <path class="cls-2" d="m35,455v-35H0c0,19.33,15.67,35,35,35Z"/>
      <path class="cls-2" d="m70,420h-35v35c19.33,0,35-15.67,35-35Z"/>
      <rect class="cls-2" x="105" y="420" width="35" height="35"/>
      <path class="cls-2" d="m227.5,420h17.5v35h-17.5c-9.67,0-17.5-7.84-17.5-17.5s7.83-17.5,17.5-17.5Z"/>
      <rect class="cls-2" x="245" y="420" width="35" height="35"/>
      <rect class="cls-2" x="280" y="420" width="35" height="35"/>
      <rect class="cls-2" x="315" y="420" width="35" height="35"/>
      <path class="cls-2" d="m385,420h-35v35c19.33,0,35-15.67,35-35Z"/>
      <path class="cls-2" d="m455,437.5v17.5s-11.91,0-17.5,0c-4.36,0-17.5,0-17.5,0v-17.5c0-9.66,7.84-17.5,17.5-17.5s17.5,7.84,17.5,17.5Z"/>
      <rect class="cls-2" x="490" y="420" width="35" height="35"/>
      <path class="cls-2" d="m525,420v35h35c0-19.33-15.67-35-35-35Z"/>
      <rect class="cls-2" x="595" y="420" width="35" height="35"/>
      <rect class="cls-2" x="735" y="420" width="35" height="35"/>
      <rect class="cls-2" x="770" y="420" width="35" height="35"/>
      <path class="cls-2" d="m910,437.5v17.5s-11.91,0-17.5,0c-4.36,0-17.5,0-17.5,0v-17.5c0-9.66,7.84-17.5,17.5-17.5s17.5,7.84,17.5,17.5Z"/>
      <path class="cls-2" d="m980,455v-35h-35c0,19.33,15.67,35,35,35Z"/>
      <path class="cls-2" d="m980,420v35h35c0-19.33-15.67-35-35-35Z"/>
      <path class="cls-2" d="m87.5,455h17.5v35h-17.5c-9.67,0-17.5-7.84-17.5-17.5s7.83-17.5,17.5-17.5Z"/>
      <rect class="cls-2" x="105" y="455" width="35" height="35"/>
      <path class="cls-2" d="m157.5,490h-17.5v-35h17.5c9.66,0,17.5,7.84,17.5,17.5s-7.84,17.5-17.5,17.5Z"/>
      <rect class="cls-2" x="245" y="455" width="35" height="35"/>
      <rect class="cls-2" x="280" y="455" width="35" height="35"/>
      <path class="cls-2" d="m350,455h-35v35c19.33,0,35-15.67,35-35Z"/>
      <path class="cls-2" d="m402.5,455h17.5v35h-17.5c-9.67,0-17.5-7.84-17.5-17.5s7.83-17.5,17.5-17.5Z"/>
      <path class="cls-2" d="m455,455h-35v35c19.33,0,35-15.67,35-35Z"/>
      <path class="cls-2" d="m525,490v-35h-35c0,19.33,15.67,35,35,35Z"/>
      <path class="cls-2" d="m560,455h-35v35c19.33,0,35-15.67,35-35Z"/>
      <rect class="cls-2" x="595" y="455" width="35" height="35"/>
      <path class="cls-2" d="m717.5,455h17.5v35h-17.5c-9.67,0-17.5-7.84-17.5-17.5s7.83-17.5,17.5-17.5Z"/>
      <rect class="cls-2" x="735" y="455" width="35" height="35"/>
      <path class="cls-2" d="m805,455h-35v35c19.33,0,35-15.67,35-35Z"/>
      <rect class="cls-2" x="875" y="455" width="35" height="35"/>
      <rect class="cls-2" x="980" y="455" width="35" height="35"/>
      <path class="cls-2" d="m227.5,490h17.5v35h-17.5c-9.67,0-17.5-7.84-17.5-17.5s7.83-17.5,17.5-17.5Z"/>
      <rect class="cls-2" x="245" y="490" width="35" height="35"/>
      <path class="cls-2" d="m367.5,490c9.67,0,17.5,7.84,17.5,17.5s-7.83,17.5-17.5,17.5-17.5-7.83-17.5-17.5,7.84-17.5,17.5-17.5Z"/>
      <path class="cls-2" d="m472.5,490c9.67,0,17.5,7.84,17.5,17.5s-7.83,17.5-17.5,17.5-17.5-7.83-17.5-17.5,7.84-17.5,17.5-17.5Z"/>
      <rect class="cls-2" x="595" y="490" width="35" height="35"/>
      <path class="cls-2" d="m630,490v35h35c0-19.33-15.67-35-35-35Z"/>
      <path class="cls-2" d="m822.5,490c9.67,0,17.5,7.84,17.5,17.5s-7.83,17.5-17.5,17.5-17.5-7.83-17.5-17.5,7.84-17.5,17.5-17.5Z"/>
      <rect class="cls-2" x="875" y="490" width="35" height="35"/>
      <path class="cls-2" d="m945,525h35v-35c-19.33,0-35,15.67-35,35Z"/>
      <path class="cls-2" d="m1015,490h-35v35c19.33,0,35-15.67,35-35Z"/>
      <path class="cls-2" d="m157.5,525c9.67,0,17.5,7.84,17.5,17.5s-7.83,17.5-17.5,17.5-17.5-7.83-17.5-17.5,7.84-17.5,17.5-17.5Z"/>
      <rect class="cls-2" x="245" y="525" width="35" height="35"/>
      <rect class="cls-2" x="280" y="525" width="35" height="35"/>
      <path class="cls-2" d="m315,525v35h35c0-19.33-15.67-35-35-35Z"/>
      <path class="cls-2" d="m402.5,525c9.67,0,17.5,7.84,17.5,17.5s-7.83,17.5-17.5,17.5-17.5-7.83-17.5-17.5,7.84-17.5,17.5-17.5Z"/>
      <path class="cls-2" d="m542.5,525c9.67,0,17.5,7.84,17.5,17.5s-7.83,17.5-17.5,17.5-17.5-7.83-17.5-17.5,7.84-17.5,17.5-17.5Z"/>
      <rect class="cls-2" x="595" y="525" width="35" height="35"/>
      <path class="cls-2" d="m665,525h-35v35c19.33,0,35-15.67,35-35Z"/>
      <path class="cls-2" d="m735,542.5v17.5s-11.91,0-17.5,0c-4.36,0-17.5,0-17.5,0v-17.5c0-9.66,7.84-17.5,17.5-17.5s17.5,7.84,17.5,17.5Z"/>
      <rect class="cls-2" x="875" y="525" width="35" height="35"/>
      <rect class="cls-2" x="945" y="525" width="35" height="35"/>
      <path class="cls-2" d="m70,595h35v-35c-19.33,0-35,15.67-35,35Z"/>
      <path class="cls-2" d="m122.5,595h-17.5v-35h17.5c9.66,0,17.5,7.84,17.5,17.5s-7.84,17.5-17.5,17.5Z"/>
      <path class="cls-2" d="m175,595h35v-35c-19.33,0-35,15.67-35,35Z"/>
      <rect class="cls-2" x="210" y="560" width="35" height="35"/>
      <rect class="cls-2" x="245" y="560" width="35" height="35"/>
      <rect class="cls-2" x="280" y="560" width="35" height="35"/>
      <rect class="cls-2" x="315" y="560" width="35" height="35"/>
      <path class="cls-2" d="m350,560v35h35c0-19.33-15.67-35-35-35Z"/>
      <path class="cls-2" d="m560,595h35v-35c-19.33,0-35,15.67-35,35Z"/>
      <path class="cls-2" d="m630,560h-35v35c19.33,0,35-15.67,35-35Z"/>
      <rect class="cls-2" x="700" y="560" width="35" height="35"/>
      <rect class="cls-2" x="735" y="560" width="35" height="35"/>
      <rect class="cls-2" x="770" y="560" width="35" height="35"/>
      <path class="cls-2" d="m822.5,595h-17.5v-35h17.5c9.66,0,17.5,7.84,17.5,17.5s-7.84,17.5-17.5,17.5Z"/>
      <rect class="cls-2" x="875" y="560" width="35" height="35"/>
      <path class="cls-2" d="m980,595v-35h-35c0,19.33,15.67,35,35,35Z"/>
      <path class="cls-2" d="m980,560v35h35c0-19.33-15.67-35-35-35Z"/>
      <path class="cls-2" d="m52.5,595h17.5v35h-17.5c-9.67,0-17.5-7.84-17.5-17.5s7.83-17.5,17.5-17.5Z"/>
      <path class="cls-2" d="m105,595h-35v35c19.33,0,35-15.67,35-35Z"/>
      <path class="cls-2" d="m175,612.5v-17.5h35v17.5c0,9.66-7.84,17.5-17.5,17.5s-17.5-7.84-17.5-17.5Z"/>
      <path class="cls-2" d="m245,612.5v-17.5h35v17.5c0,9.66-7.84,17.5-17.5,17.5s-17.5-7.84-17.5-17.5Z"/>
      <rect class="cls-2" x="315" y="595" width="35" height="35"/>
      <path class="cls-2" d="m385,595h-35v35c19.33,0,35-15.67,35-35Z"/>
      <path class="cls-2" d="m420,630h35v-35c-19.33,0-35,15.67-35,35Z"/>
      <path class="cls-2" d="m472.5,630h-17.5v-35h17.5c9.66,0,17.5,7.84,17.5,17.5s-7.84,17.5-17.5,17.5Z"/>
      <path class="cls-2" d="m525,630h35v-35c-19.33,0-35,15.67-35,35Z"/>
      <rect class="cls-2" x="560" y="595" width="35" height="35"/>
      <path class="cls-2" d="m735,630v-35h-35c0,19.33,15.67,35,35,35Z"/>
      <rect class="cls-2" x="735" y="595" width="35" height="35"/>
      <path class="cls-2" d="m805,595h-35v35c19.33,0,35-15.67,35-35Z"/>
      <path class="cls-2" d="m910,630v-35h-35c0,19.33,15.67,35,35,35Z"/>
      <path class="cls-2" d="m927.5,630h-17.5v-35h17.5c9.66,0,17.5,7.84,17.5,17.5s-7.84,17.5-17.5,17.5Z"/>
      <rect class="cls-2" x="980" y="595" width="35" height="35"/>
      <path class="cls-2" d="m17.5,630c9.67,0,17.5,7.84,17.5,17.5s-7.83,17.5-17.5,17.5-17.5-7.83-17.5-17.5,7.84-17.5,17.5-17.5Z"/>
      <path class="cls-2" d="m227.5,630c9.67,0,17.5,7.84,17.5,17.5s-7.83,17.5-17.5,17.5-17.5-7.83-17.5-17.5,7.84-17.5,17.5-17.5Z"/>
      <path class="cls-2" d="m280,665h35v-35c-19.33,0-35,15.67-35,35Z"/>
      <path class="cls-2" d="m350,630h-35v35c19.33,0,35-15.67,35-35Z"/>
      <path class="cls-2" d="m420,647.5v-17.5h35v17.5c0,9.66-7.84,17.5-17.5,17.5s-17.5-7.84-17.5-17.5Z"/>
      <path class="cls-2" d="m490,665h35v-35c-19.33,0-35,15.67-35,35Z"/>
      <rect class="cls-2" x="525" y="630" width="35" height="35"/>
      <rect class="cls-2" x="560" y="630" width="35" height="35"/>
      <path class="cls-2" d="m595,630v35h35c0-19.33-15.67-35-35-35Z"/>
      <rect class="cls-2" x="735" y="630" width="35" height="35"/>
      <path class="cls-2" d="m945,665h35v-35c-19.33,0-35,15.67-35,35Z"/>
      <path class="cls-2" d="m1015,630h-35v35c19.33,0,35-15.67,35-35Z"/>
      <path class="cls-2" d="m52.5,665c9.67,0,17.5,7.84,17.5,17.5s-7.83,17.5-17.5,17.5-17.5-7.83-17.5-17.5,7.84-17.5,17.5-17.5Z"/>
      <path class="cls-2" d="m192.5,665c9.67,0,17.5,7.84,17.5,17.5s-7.83,17.5-17.5,17.5-17.5-7.83-17.5-17.5,7.84-17.5,17.5-17.5Z"/>
      <rect class="cls-2" x="280" y="665" width="35" height="35"/>
      <path class="cls-2" d="m472.5,665h17.5v35h-17.5c-9.67,0-17.5-7.84-17.5-17.5s7.83-17.5,17.5-17.5Z"/>
      <rect class="cls-2" x="490" y="665" width="35" height="35"/>
      <path class="cls-2" d="m595,700v-35h-35c0,19.33,15.67,35,35,35Z"/>
      <rect class="cls-2" x="595" y="665" width="35" height="35"/>
      <rect class="cls-2" x="630" y="665" width="35" height="35"/>
      <path class="cls-2" d="m682.5,700h-17.5v-35h17.5c9.66,0,17.5,7.84,17.5,17.5s-7.84,17.5-17.5,17.5Z"/>
      <rect class="cls-2" x="735" y="665" width="35" height="35"/>
      <rect class="cls-2" x="770" y="665" width="35" height="35"/>
      <path class="cls-2" d="m805,665v35h35c0-19.33-15.67-35-35-35Z"/>
      <path class="cls-2" d="m892.5,665c9.67,0,17.5,7.84,17.5,17.5s-7.83,17.5-17.5,17.5-17.5-7.83-17.5-17.5,7.84-17.5,17.5-17.5Z"/>
      <path class="cls-2" d="m945,682.5v-17.5h35v17.5c0,9.66-7.84,17.5-17.5,17.5s-17.5-7.84-17.5-17.5Z"/>
      <path class="cls-2" d="m17.5,700c9.67,0,17.5,7.84,17.5,17.5s-7.83,17.5-17.5,17.5-17.5-7.83-17.5-17.5,7.84-17.5,17.5-17.5Z"/>
      <path class="cls-2" d="m87.5,700h17.5v35h-17.5c-9.67,0-17.5-7.84-17.5-17.5s7.83-17.5,17.5-17.5Z"/>
      <rect class="cls-2" x="105" y="700" width="35" height="35"/>
      <path class="cls-2" d="m157.5,735h-17.5v-35h17.5c9.66,0,17.5,7.84,17.5,17.5s-7.84,17.5-17.5,17.5Z"/>
      <path class="cls-2" d="m227.5,700h17.5v35h-17.5c-9.67,0-17.5-7.84-17.5-17.5s7.83-17.5,17.5-17.5Z"/>
      <rect class="cls-2" x="245" y="700" width="35" height="35"/>
      <rect class="cls-2" x="280" y="700" width="35" height="35"/>
      <rect class="cls-2" x="315" y="700" width="35" height="35"/>
      <rect class="cls-2" x="350" y="700" width="35" height="35"/>
      <path class="cls-2" d="m402.5,735h-17.5v-35h17.5c9.66,0,17.5,7.84,17.5,17.5s-7.84,17.5-17.5,17.5Z"/>
      <rect class="cls-2" x="490" y="700" width="35" height="35"/>
      <path class="cls-2" d="m525,700v35h35c0-19.33-15.67-35-35-35Z"/>
      <path class="cls-2" d="m595,717.5v-17.5h35v17.5c0,9.66-7.84,17.5-17.5,17.5s-17.5-7.84-17.5-17.5Z"/>
      <path class="cls-2" d="m700,735h35v-35c-19.33,0-35,15.67-35,35Z"/>
      <rect class="cls-2" x="735" y="700" width="35" height="35"/>
      <rect class="cls-2" x="770" y="700" width="35" height="35"/>
      <rect class="cls-2" x="805" y="700" width="35" height="35"/>
      <path class="cls-2" d="m840,700v35h35c0-19.33-15.67-35-35-35Z"/>
      <path class="cls-2" d="m280,752.5v-17.5h35v17.5c0,9.66-7.84,17.5-17.5,17.5s-17.5-7.84-17.5-17.5Z"/>
      <path class="cls-2" d="m437.5,735c9.67,0,17.5,7.84,17.5,17.5s-7.83,17.5-17.5,17.5-17.5-7.83-17.5-17.5,7.84-17.5,17.5-17.5Z"/>
      <path class="cls-2" d="m525,770v-35h-35c0,19.33,15.67,35,35,35Z"/>
      <path class="cls-2" d="m560,735h-35v35c19.33,0,35-15.67,35-35Z"/>
      <path class="cls-2" d="m665,770h35v-35c-19.33,0-35,15.67-35,35Z"/>
      <rect class="cls-2" x="700" y="735" width="35" height="35"/>
      <rect class="cls-2" x="840" y="735" width="35" height="35"/>
      <path class="cls-2" d="m927.5,735h17.5v35h-17.5c-9.67,0-17.5-7.84-17.5-17.5s7.83-17.5,17.5-17.5Z"/>
      <rect class="cls-2" x="945" y="735" width="35" height="35"/>
      <path class="cls-2" d="m980,735v35h35c0-19.33-15.67-35-35-35Z"/>
      <path class="cls-2" d="m332.5,770c9.67,0,17.5,7.84,17.5,17.5s-7.83,17.5-17.5,17.5-17.5-7.83-17.5-17.5,7.84-17.5,17.5-17.5Z"/>
      <path class="cls-2" d="m402.5,770c9.67,0,17.5,7.84,17.5,17.5s-7.83,17.5-17.5,17.5-17.5-7.83-17.5-17.5,7.84-17.5,17.5-17.5Z"/>
      <path class="cls-2" d="m472.5,770c9.67,0,17.5,7.84,17.5,17.5s-7.83,17.5-17.5,17.5-17.5-7.83-17.5-17.5,7.84-17.5,17.5-17.5Z"/>
      <path class="cls-2" d="m700,805v-35h-35c0,19.33,15.67,35,35,35Z"/>
      <rect class="cls-2" x="700" y="770" width="35" height="35"/>
      <path class="cls-2" d="m787.5,770c9.67,0,17.5,7.84,17.5,17.5s-7.83,17.5-17.5,17.5-17.5-7.83-17.5-17.5,7.84-17.5,17.5-17.5Z"/>
      <rect class="cls-2" x="840" y="770" width="35" height="35"/>
      <path class="cls-2" d="m875,770v35h35c0-19.33-15.67-35-35-35Z"/>
      <path class="cls-2" d="m980,805v-35h-35c0,19.33,15.67,35,35,35Z"/>
      <path class="cls-2" d="m1015,770h-35v35c19.33,0,35-15.67,35-35Z"/>
      <path class="cls-2" d="m437.5,805c9.67,0,17.5,7.84,17.5,17.5s-7.83,17.5-17.5,17.5-17.5-7.83-17.5-17.5,7.84-17.5,17.5-17.5Z"/>
      <path class="cls-2" d="m542.5,805c9.67,0,17.5,7.84,17.5,17.5s-7.83,17.5-17.5,17.5-17.5-7.83-17.5-17.5,7.84-17.5,17.5-17.5Z"/>
      <path class="cls-2" d="m595,840h35v-35c-19.33,0-35,15.67-35,35Z"/>
      <path class="cls-2" d="m630,805v35h35c0-19.33-15.67-35-35-35Z"/>
      <rect class="cls-2" x="700" y="805" width="35" height="35"/>
      <rect class="cls-2" x="840" y="805" width="35" height="35"/>
      <path class="cls-2" d="m910,805h-35v35c19.33,0,35-15.67,35-35Z"/>
      <path class="cls-2" d="m297.5,840h17.5v35h-17.5c-9.67,0-17.5-7.84-17.5-17.5s7.83-17.5,17.5-17.5Z"/>
      <rect class="cls-2" x="315" y="840" width="35" height="35"/>
      <rect class="cls-2" x="350" y="840" width="35" height="35"/>
      <path class="cls-2" d="m385,840v35h35c0-19.33-15.67-35-35-35Z"/>
      <path class="cls-2" d="m560,875h35v-35c-19.33,0-35,15.67-35,35Z"/>
      <rect class="cls-2" x="595" y="840" width="35" height="35"/>
      <path class="cls-2" d="m665,840h-35v35c19.33,0,35-15.67,35-35Z"/>
      <rect class="cls-2" x="700" y="840" width="35" height="35"/>
      <rect class="cls-2" x="735" y="840" width="35" height="35"/>
      <rect class="cls-2" x="770" y="840" width="35" height="35"/>
      <rect class="cls-2" x="805" y="840" width="35" height="35"/>
      <rect class="cls-2" x="840" y="840" width="35" height="35"/>
      <path class="cls-2" d="m962.5,840c9.67,0,17.5,7.84,17.5,17.5s-7.83,17.5-17.5,17.5-17.5-7.83-17.5-17.5,7.84-17.5,17.5-17.5Z"/>
      <rect class="cls-2" x="350" y="875" width="35" height="35"/>
      <path class="cls-2" d="m420,875h-35v35c19.33,0,35-15.67,35-35Z"/>
      <path class="cls-2" d="m472.5,875c9.67,0,17.5,7.84,17.5,17.5s-7.83,17.5-17.5,17.5-17.5-7.83-17.5-17.5,7.84-17.5,17.5-17.5Z"/>
      <path class="cls-2" d="m525,910h35v-35c-19.33,0-35,15.67-35,35Z"/>
      <rect class="cls-2" x="560" y="875" width="35" height="35"/>
      <path class="cls-2" d="m682.5,875h17.5v35h-17.5c-9.67,0-17.5-7.84-17.5-17.5s7.83-17.5,17.5-17.5Z"/>
      <rect class="cls-2" x="700" y="875" width="35" height="35"/>
      <rect class="cls-2" x="840" y="875" width="35" height="35"/>
      <path class="cls-2" d="m927.5,875c9.67,0,17.5,7.84,17.5,17.5s-7.83,17.5-17.5,17.5-17.5-7.83-17.5-17.5,7.84-17.5,17.5-17.5Z"/>
      <path class="cls-2" d="m297.5,910h17.5v35h-17.5c-9.67,0-17.5-7.84-17.5-17.5s7.83-17.5,17.5-17.5Z"/>
      <rect class="cls-2" x="315" y="910" width="35" height="35"/>
      <rect class="cls-2" x="350" y="910" width="35" height="35"/>
      <path class="cls-2" d="m560,945v-35h-35c0,19.33,15.67,35,35,35Z"/>
      <rect class="cls-2" x="560" y="910" width="35" height="35"/>
      <path class="cls-2" d="m595,910v35h35c0-19.33-15.67-35-35-35Z"/>
      <rect class="cls-2" x="700" y="910" width="35" height="35"/>
      <path class="cls-2" d="m822.5,910h17.5v35h-17.5c-9.67,0-17.5-7.84-17.5-17.5s7.83-17.5,17.5-17.5Z"/>
      <rect class="cls-2" x="840" y="910" width="35" height="35"/>
      <path class="cls-2" d="m892.5,945h-17.5v-35h17.5c9.66,0,17.5,7.84,17.5,17.5s-7.84,17.5-17.5,17.5Z"/>
      <path class="cls-2" d="m997.5,910c9.67,0,17.5,7.84,17.5,17.5s-7.83,17.5-17.5,17.5-17.5-7.83-17.5-17.5,7.84-17.5,17.5-17.5Z"/>
      <path class="cls-2" d="m350,962.5v-17.5h35v17.5c0,9.66-7.84,17.5-17.5,17.5s-17.5-7.84-17.5-17.5Z"/>
      <path class="cls-2" d="m455,962.5v17.5s-11.91,0-17.5,0c-4.36,0-17.5,0-17.5,0v-17.5c0-9.66,7.84-17.5,17.5-17.5s17.5,7.84,17.5,17.5Z"/>
      <path class="cls-2" d="m525,962.5v17.5s-11.91,0-17.5,0c-4.36,0-17.5,0-17.5,0v-17.5c0-9.66,7.84-17.5,17.5-17.5s17.5,7.84,17.5,17.5Z"/>
      <rect class="cls-2" x="560" y="945" width="35" height="35"/>
      <rect class="cls-2" x="595" y="945" width="35" height="35"/>
      <path class="cls-2" d="m630,945v35h35c0-19.33-15.67-35-35-35Z"/>
      <rect class="cls-2" x="700" y="945" width="35" height="35"/>
      <path class="cls-2" d="m735,945v35h35c0-19.33-15.67-35-35-35Z"/>
      <rect class="cls-2" x="840" y="945" width="35" height="35"/>
      <path class="cls-2" d="m980,962.5v17.5s-11.91,0-17.5,0c-4.36,0-17.5,0-17.5,0v-17.5c0-9.66,7.84-17.5,17.5-17.5s17.5,7.84,17.5,17.5Z"/>
      <path class="cls-2" d="m297.5,980h17.5v35h-17.5c-9.67,0-17.5-7.84-17.5-17.5s7.83-17.5,17.5-17.5Z"/>
      <path class="cls-2" d="m332.5,1015h-17.5v-35h17.5c9.66,0,17.5,7.84,17.5,17.5s-7.84,17.5-17.5,17.5Z"/>
      <path class="cls-2" d="m402.5,980h17.5v35h-17.5c-9.67,0-17.5-7.84-17.5-17.5s7.83-17.5,17.5-17.5Z"/>
      <rect class="cls-2" x="420" y="980" width="35" height="35"/>
      <rect class="cls-2" x="455" y="980" width="35" height="35"/>
      <rect class="cls-2" x="490" y="980" width="35" height="35"/>
      <rect class="cls-2" x="525" y="980" width="35" height="35"/>
      <path class="cls-2" d="m595,980h-35v35c19.33,0,35-15.67,35-35Z"/>
      <path class="cls-2" d="m665,1015v-35h-35c0,19.33,15.67,35,35,35Z"/>
      <rect class="cls-2" x="665" y="980" width="35" height="35"/>
      <rect class="cls-2" x="700" y="980" width="35" height="35"/>
      <rect class="cls-2" x="735" y="980" width="35" height="35"/>
      <rect class="cls-2" x="770" y="980" width="35" height="35"/>
      <rect class="cls-2" x="805" y="980" width="35" height="35"/>
      <path class="cls-2" d="m875,980h-35v35c19.33,0,35-15.67,35-35Z"/>
      <path class="cls-2" d="m980,1015v-35h-35c0,19.33,15.67,35,35,35Z"/>
      <path class="cls-2" d="m997.5,1015h-17.5v-35h17.5c9.66,0,17.5,7.84,17.5,17.5s-7.84,17.5-17.5,17.5Z"/>
      <g>
        <path class="cls-1" d="m161.35,36.77h-77.71c-10,0-19.28,3.08-26.9,8.33-5.93,4.08-10.85,9.47-14.33,15.73-3.62,6.51-5.67,13.96-5.67,21.88v79.55c0,25.34,21.04,45.96,46.91,45.96h38.84s38.84,0,38.84,0c25.87,0,46.91-20.62,46.91-45.96v-79.55c0-25.33-21.04-45.94-46.9-45.94Z"/>
        <path class="cls-2" d="m161.35.02h-77.71C45.77.02,13.69,25.04,3.43,59.24c-1.06,3.54-1.89,7.17-2.46,10.89-.63,4.1-.97,8.3-.97,12.58v79.55c0,45.62,37.53,82.71,83.65,82.71h38.85s38.85,0,38.85,0c46.11,0,83.65-37.1,83.65-82.71v-79.55C245,37.11,207.47.02,161.35.02Zm46.9,162.24c0,25.34-21.04,45.96-46.91,45.96h-38.84s-38.84,0-38.84,0c-25.87,0-46.91-20.62-46.91-45.96v-79.55c0-7.92,2.05-15.37,5.67-21.88,3.48-6.26,8.4-11.65,14.33-15.73,7.62-5.25,16.9-8.33,26.9-8.33h77.71c25.86,0,46.9,20.61,46.9,45.94v79.55Z"/>
      </g>
      <g>
        <path class="cls-1" d="m931.35,36.77h-77.71c-10,0-19.28,3.08-26.9,8.33-5.93,4.08-10.85,9.47-14.33,15.73-3.62,6.51-5.67,13.96-5.67,21.88v79.55c0,25.34,21.04,45.96,46.91,45.96h38.84s38.84,0,38.84,0c25.87,0,46.91-20.62,46.91-45.96v-79.55c0-25.33-21.04-45.94-46.9-45.94Z"/>
        <path class="cls-2" d="m931.35.02h-77.71c-37.87,0-69.96,25.02-80.22,59.22-1.06,3.54-1.89,7.17-2.46,10.89-.63,4.1-.97,8.3-.97,12.58v79.55c0,45.62,37.53,82.71,83.65,82.71h38.85s38.85,0,38.85,0c46.11,0,83.65-37.1,83.65-82.71v-79.55C1015,37.11,977.47.02,931.35.02Zm46.9,162.24c0,25.34-21.04,45.96-46.91,45.96h-38.84s-38.84,0-38.84,0c-25.87,0-46.91-20.62-46.91-45.96v-79.55c0-7.92,2.05-15.37,5.67-21.88,3.48-6.26,8.4-11.65,14.33-15.73,7.62-5.25,16.9-8.33,26.9-8.33h77.71c25.86,0,46.9,20.61,46.9,45.94v79.55Z"/>
      </g>
      <g>
        <path class="cls-1" d="m161.35,806.77h-77.71c-10,0-19.28,3.08-26.9,8.33-5.93,4.08-10.85,9.47-14.33,15.73-3.62,6.51-5.67,13.96-5.67,21.88v79.55c0,25.34,21.04,45.96,46.91,45.96h38.84s38.84,0,38.84,0c25.87,0,46.91-20.62,46.91-45.96v-79.55c0-25.33-21.04-45.94-46.9-45.94Z"/>
        <path class="cls-2" d="m161.35,770.02h-77.71c-37.87,0-69.96,25.02-80.22,59.22-1.06,3.54-1.89,7.17-2.46,10.89-.63,4.1-.97,8.3-.97,12.58v79.55c0,45.62,37.53,82.71,83.65,82.71h38.85s38.85,0,38.85,0c46.11,0,83.65-37.1,83.65-82.71v-79.55c0-45.59-37.53-82.69-83.65-82.69Zm46.9,162.24c0,25.34-21.04,45.96-46.91,45.96h-38.84s-38.84,0-38.84,0c-25.87,0-46.91-20.62-46.91-45.96v-79.55c0-7.92,2.05-15.37,5.67-21.88,3.48-6.26,8.4-11.65,14.33-15.73,7.62-5.25,16.9-8.33,26.9-8.33h77.71c25.86,0,46.9,20.61,46.9,45.94v79.55Z"/>
      </g>
      <path class="cls-2" d="m98.72,175c-15.84,0-28.73-12.63-28.73-28.15v-48.72c0-4.85,1.26-9.41,3.47-13.4,2.13-3.84,5.15-7.14,8.78-9.63,4.67-3.21,10.35-5.1,16.47-5.1h47.59c15.83,0,28.72,12.62,28.72,28.13v48.72c0,15.51-12.89,28.15-28.72,28.15h-47.58Z"/>
      <path class="cls-2" d="m868.72,175c-15.84,0-28.73-12.63-28.73-28.15v-48.72c0-4.85,1.26-9.41,3.47-13.4,2.13-3.84,5.15-7.14,8.78-9.63,4.67-3.21,10.35-5.1,16.47-5.1h47.59c15.83,0,28.72,12.62,28.72,28.13v48.72c0,15.51-12.89,28.15-28.72,28.15h-47.58Z"/>
      <path class="cls-2" d="m98.72,945c-15.84,0-28.73-12.63-28.73-28.15v-48.72c0-4.85,1.26-9.41,3.47-13.4,2.13-3.84,5.15-7.14,8.78-9.63,4.67-3.21,10.35-5.1,16.47-5.1h47.59c15.83,0,28.72,12.62,28.72,28.13v48.72c0,15.51-12.89,28.15-28.72,28.15h-47.58Z"/>
    </g>
  </g>
</svg>